solid OpenSCAD_Model
  facet normal -1.22461e-016 -2.22045e-016 1
    outer loop
      vertex -2.8 -14.8 0.02
      vertex -2.8 -2.375 0.02
      vertex -2.8 -14.825 0.02
    endloop
  endfacet
  facet normal -1.22461e-016 -2.22045e-016 1
    outer loop
      vertex -2.8 -2.4 0.02
      vertex -1.65 -2.4 0.02
      vertex -1.65 -2.375 0.02
    endloop
  endfacet
  facet normal -1.22461e-016 -2.22045e-016 1
    outer loop
      vertex -2.8 -2.4 0.02
      vertex -2.8 -2.375 0.02
      vertex -2.8 -14.8 0.02
    endloop
  endfacet
  facet normal -1.22461e-016 -2.22045e-016 1
    outer loop
      vertex -1.65 -2.375 0.02
      vertex -2.8 -2.375 0.02
      vertex -2.8 -2.4 0.02
    endloop
  endfacet
  facet normal -1.22461e-016 -2.22045e-016 1
    outer loop
      vertex 2.8 -14.8 0.02
      vertex -2.8 -14.825 0.02
      vertex 2.8 -14.825 0.02
    endloop
  endfacet
  facet normal -1.22461e-016 -2.22045e-016 1
    outer loop
      vertex 2.8 -14.8 0.02
      vertex -2.8 -14.8 0.02
      vertex -2.8 -14.825 0.02
    endloop
  endfacet
  facet normal -0.656179 1.67556e-016 -0.754606
    outer loop
      vertex -2.777 -14.8 3.28626e-015
      vertex -1.65 -2.375 -0.98
      vertex -1.65 -14.825 -0.98
    endloop
  endfacet
  facet normal -0.656179 1.67556e-016 -0.754606
    outer loop
      vertex -2.8 -2.375 0.02
      vertex -1.65 -2.375 -0.98
      vertex -2.8 -2.4 0.02
    endloop
  endfacet
  facet normal -0.656179 1.67556e-016 -0.754606
    outer loop
      vertex -2.8 -2.375 0.02
      vertex -2.8 -2.4 0.02
      vertex -2.8 -14.825 0.02
    endloop
  endfacet
  facet normal -0.656179 1.67556e-016 -0.754606
    outer loop
      vertex -2.8 -2.4 0.02
      vertex -2.8 -14.8 0.02
      vertex -2.8 -14.825 0.02
    endloop
  endfacet
  facet normal -0.656179 1.67556e-016 -0.754606
    outer loop
      vertex -2.777 -2.4 5.32907e-016
      vertex -1.65 -2.375 -0.98
      vertex -2.777 -14.8 3.28626e-015
    endloop
  endfacet
  facet normal -0.656179 1.67556e-016 -0.754606
    outer loop
      vertex -2.8 -14.825 0.02
      vertex -2.777 -14.8 3.28626e-015
      vertex -1.65 -14.825 -0.98
    endloop
  endfacet
  facet normal -0.656179 1.67556e-016 -0.754606
    outer loop
      vertex -2.8 -2.4 0.02
      vertex -1.65 -2.375 -0.98
      vertex -2.777 -2.4 5.32907e-016
    endloop
  endfacet
  facet normal -0.656179 1.67556e-016 -0.754606
    outer loop
      vertex -2.777 -14.8 3.28626e-015
      vertex -2.8 -14.825 0.02
      vertex -2.8 -14.8 0.02
    endloop
  endfacet
  facet normal -2.17149e-032 1 1.77321e-016
    outer loop
      vertex -2.8 -2.375 0.02
      vertex -1.65 -2.375 0.02
      vertex -1.65 -2.375 -0.98
    endloop
  endfacet
  facet normal -1 0 0
    outer loop
      vertex -1.65 -14.8 2.6
      vertex -1.65 -14.8 3.6
      vertex -1.65 -2.55 3.6
    endloop
  endfacet
  facet normal -1 0 0
    outer loop
      vertex -1.65 -2.55 3.6
      vertex -1.65 -2.55 3.8
      vertex -1.65 -2.3 3.8
    endloop
  endfacet
  facet normal -1 0 0
    outer loop
      vertex -1.65 -2.3 3.8
      vertex -1.65 -2.3 16.1
      vertex -1.65 -1.3 16.1
    endloop
  endfacet
  facet normal -1 0 0
    outer loop
      vertex -1.65 -2.3 3.8
      vertex -1.65 -1.3 16.1
      vertex -1.65 -1.3 3.7
    endloop
  endfacet
  facet normal -1 0 0
    outer loop
      vertex -1.65 -2.3 3.8
      vertex -1.65 -1.3 3.7
      vertex -1.65 -2.55 3.6
    endloop
  endfacet
  facet normal -1 0 0
    outer loop
      vertex -1.65 -2.375 0.02
      vertex -1.65 2.25 3.7
      vertex -1.65 2.25 -1
    endloop
  endfacet
  facet normal -1 0 0
    outer loop
      vertex -1.65 -14.8 2.6
      vertex -1.65 2.25 3.7
      vertex -1.65 -2.4 2.6
    endloop
  endfacet
  facet normal -1 0 0
    outer loop
      vertex -1.65 2.25 -1
      vertex -1.65 -2.55 -1
      vertex -1.65 -2.55 -0.98
    endloop
  endfacet
  facet normal -1 0 0
    outer loop
      vertex -1.65 2.25 -1
      vertex -1.65 -2.55 -0.98
      vertex -1.65 -2.375 -0.98
    endloop
  endfacet
  facet normal -1 0 0
    outer loop
      vertex -1.65 -2.4 2.6
      vertex -1.65 2.25 3.7
      vertex -1.65 -2.375 0.02
    endloop
  endfacet
  facet normal -1 0 0
    outer loop
      vertex -1.65 -2.4 2.6
      vertex -1.65 -2.375 0.02
      vertex -1.65 -2.4 0.02
    endloop
  endfacet
  facet normal -1 0 0
    outer loop
      vertex -1.65 -14.8 2.6
      vertex -1.65 -1.3 3.7
      vertex -1.65 2.25 3.7
    endloop
  endfacet
  facet normal -1 0 0
    outer loop
      vertex -1.65 -14.8 2.6
      vertex -1.65 -2.55 3.6
      vertex -1.65 -1.3 3.7
    endloop
  endfacet
  facet normal -1 0 0
    outer loop
      vertex -1.65 -14.8 2.5
      vertex -1.65 -14.8 3.6
      vertex -1.65 -14.8 2.6
    endloop
  endfacet
  facet normal -1 0 0
    outer loop
      vertex -1.65 -2.375 0.02
      vertex -1.65 2.25 -1
      vertex -1.65 -2.375 -0.98
    endloop
  endfacet
  facet normal 0 1 -2.22045e-016
    outer loop
      vertex -2.8 -2.4 0.02
      vertex -2.8 -2.4 2.6
      vertex -1.65 -2.4 0.02
    endloop
  endfacet
  facet normal 0 1 -2.22045e-016
    outer loop
      vertex -1.65 -2.4 0.02
      vertex -2.8 -2.4 2.6
      vertex -1.65 -2.4 2.6
    endloop
  endfacet
  facet normal -1 0 0
    outer loop
      vertex -2.8 -14.8 0.02
      vertex -2.8 -14.8 2.6
      vertex -2.8 -2.4 0.02
    endloop
  endfacet
  facet normal -1 0 0
    outer loop
      vertex -2.8 -2.4 0.02
      vertex -2.8 -14.8 2.6
      vertex -2.8 -2.4 2.6
    endloop
  endfacet
  facet normal 0 -1 2.22045e-016
    outer loop
      vertex -2.8 -14.8 2.6
      vertex -2.8 -14.8 0.02
      vertex 2.8 -14.8 0.02
    endloop
  endfacet
  facet normal 0 -1 2.22045e-016
    outer loop
      vertex -1.65 -14.8 2.5
      vertex -2.8 -14.8 2.6
      vertex 2.8 -14.8 0.02
    endloop
  endfacet
  facet normal 0 -1 2.22045e-016
    outer loop
      vertex 2.777 -14.8 3.28626e-015
      vertex 2.8 -14.8 3.28626e-015
      vertex 2.8 -14.8 0.02
    endloop
  endfacet
  facet normal 0 -1 2.22045e-016
    outer loop
      vertex 2.8 -14.8 3.28626e-015
      vertex 2.8 -14.8 2.6
      vertex 2.8 -14.8 0.02
    endloop
  endfacet
  facet normal 0 -1 2.22045e-016
    outer loop
      vertex 2.8 -14.8 2.6
      vertex 1.65 -14.8 2.6
      vertex 2.8 -14.8 0.02
    endloop
  endfacet
  facet normal 0 -1 2.22045e-016
    outer loop
      vertex 1.65 -14.8 2.6
      vertex 1.65 -14.8 2.5
      vertex 2.8 -14.8 0.02
    endloop
  endfacet
  facet normal 0 -1 2.22045e-016
    outer loop
      vertex 1.65 -14.8 2.5
      vertex -1.65 -14.8 2.5
      vertex 2.8 -14.8 0.02
    endloop
  endfacet
  facet normal 0 -1 2.22045e-016
    outer loop
      vertex -1.65 -14.8 2.5
      vertex -1.65 -14.8 2.6
      vertex -2.8 -14.8 2.6
    endloop
  endfacet
  facet normal 0.656179 1.67556e-016 -0.754606
    outer loop
      vertex 2.777 -14.8 3.28626e-015
      vertex 1.65 -14.825 -0.98
      vertex 2.777 -2.4 5.32907e-016
    endloop
  endfacet
  facet normal 0.656179 1.67556e-016 -0.754606
    outer loop
      vertex 1.65 -2.375 -0.98
      vertex 2.8 -2.375 0.02
      vertex 2.777 -2.4 5.32907e-016
    endloop
  endfacet
  facet normal 0.656179 1.67556e-016 -0.754606
    outer loop
      vertex 1.65 -2.375 -0.98
      vertex 2.777 -2.4 5.32907e-016
      vertex 1.65 -14.825 -0.98
    endloop
  endfacet
  facet normal 0.656179 1.67556e-016 -0.754606
    outer loop
      vertex 1.65 -14.825 -0.98
      vertex 2.777 -14.8 3.28626e-015
      vertex 2.8 -14.8 0.02
    endloop
  endfacet
  facet normal 0.656179 1.67556e-016 -0.754606
    outer loop
      vertex 1.65 -14.825 -0.98
      vertex 2.8 -14.8 0.02
      vertex 2.8 -14.825 0.02
    endloop
  endfacet
  facet normal 0.656179 1.67556e-016 -0.754606
    outer loop
      vertex 2.777 -2.4 5.32907e-016
      vertex 2.8 -2.375 0.02
      vertex 2.8 -2.4 0.02
    endloop
  endfacet
  facet normal 2.17149e-032 -1 -1.77321e-016
    outer loop
      vertex 2.8 -14.825 0.02
      vertex -2.8 -14.825 0.02
      vertex -1.65 -14.825 -0.98
    endloop
  endfacet
  facet normal 2.17149e-032 -1 -1.77321e-016
    outer loop
      vertex 1.65 -14.825 -0.98
      vertex 2.8 -14.825 0.02
      vertex -1.65 -14.825 -0.98
    endloop
  endfacet
  facet normal 1.22461e-016 2.22045e-016 -1
    outer loop
      vertex -1.65 -14.825 -0.98
      vertex -1.65 -2.375 -0.98
      vertex -1.65 -2.55 -0.98
    endloop
  endfacet
  facet normal 1.22461e-016 2.22045e-016 -1
    outer loop
      vertex -1.03934 -9.30554 -0.98
      vertex -1.65 -2.55 -0.98
      vertex 1.65 -2.55 -0.98
    endloop
  endfacet
  facet normal 1.22461e-016 2.22045e-016 -1
    outer loop
      vertex 1.65 -2.55 -0.98
      vertex 1.65 -2.375 -0.98
      vertex 1.65 -14.825 -0.98
    endloop
  endfacet
  facet normal 1.22461e-016 2.22045e-016 -1
    outer loop
      vertex -0.478354 -11.1548 -0.98
      vertex 1.65 -14.825 -0.98
      vertex -1.65 -14.825 -0.98
    endloop
  endfacet
  facet normal 1.22461e-016 2.22045e-016 -1
    outer loop
      vertex -1.65 -14.825 -0.98
      vertex -1.65 -2.55 -0.98
      vertex -1.25 -10 -0.98
    endloop
  endfacet
  facet normal 1.22461e-016 2.22045e-016 -1
    outer loop
      vertex -1.65 -14.825 -0.98
      vertex -1.25 -10 -0.98
      vertex -1.22598 -10.2439 -0.98
    endloop
  endfacet
  facet normal 1.22461e-016 2.22045e-016 -1
    outer loop
      vertex -1.65 -14.825 -0.98
      vertex -1.22598 -10.2439 -0.98
      vertex -1.15485 -10.4784 -0.98
    endloop
  endfacet
  facet normal 1.22461e-016 2.22045e-016 -1
    outer loop
      vertex -1.65 -14.825 -0.98
      vertex -1.15485 -10.4784 -0.98
      vertex -1.03934 -10.6945 -0.98
    endloop
  endfacet
  facet normal 1.22461e-016 2.22045e-016 -1
    outer loop
      vertex -1.65 -14.825 -0.98
      vertex -1.03934 -10.6945 -0.98
      vertex -0.883883 -10.8839 -0.98
    endloop
  endfacet
  facet normal 1.22461e-016 2.22045e-016 -1
    outer loop
      vertex -1.65 -14.825 -0.98
      vertex -0.883883 -10.8839 -0.98
      vertex -0.694463 -11.0393 -0.98
    endloop
  endfacet
  facet normal 1.22461e-016 2.22045e-016 -1
    outer loop
      vertex -0.243863 -11.226 -0.98
      vertex 1.65 -14.825 -0.98
      vertex -0.478354 -11.1548 -0.98
    endloop
  endfacet
  facet normal 1.22461e-016 2.22045e-016 -1
    outer loop
      vertex 1.22598 -9.75614 -0.98
      vertex 1.65 -2.55 -0.98
      vertex 1.25 -10 -0.98
    endloop
  endfacet
  facet normal 1.22461e-016 2.22045e-016 -1
    outer loop
      vertex 0 -11.25 -0.98
      vertex 1.65 -14.825 -0.98
      vertex -0.243863 -11.226 -0.98
    endloop
  endfacet
  facet normal 1.22461e-016 2.22045e-016 -1
    outer loop
      vertex 0.243863 -11.226 -0.98
      vertex 1.65 -14.825 -0.98
      vertex 0 -11.25 -0.98
    endloop
  endfacet
  facet normal 1.22461e-016 2.22045e-016 -1
    outer loop
      vertex 0.478354 -11.1548 -0.98
      vertex 1.65 -14.825 -0.98
      vertex 0.243863 -11.226 -0.98
    endloop
  endfacet
  facet normal 1.22461e-016 2.22045e-016 -1
    outer loop
      vertex 0.694463 -11.0393 -0.98
      vertex 1.65 -14.825 -0.98
      vertex 0.478354 -11.1548 -0.98
    endloop
  endfacet
  facet normal 1.22461e-016 2.22045e-016 -1
    outer loop
      vertex 0.883883 -10.8839 -0.98
      vertex 1.65 -14.825 -0.98
      vertex 0.694463 -11.0393 -0.98
    endloop
  endfacet
  facet normal 1.22461e-016 2.22045e-016 -1
    outer loop
      vertex 1.03934 -10.6945 -0.98
      vertex 1.65 -14.825 -0.98
      vertex 0.883883 -10.8839 -0.98
    endloop
  endfacet
  facet normal 1.22461e-016 2.22045e-016 -1
    outer loop
      vertex 1.15485 -10.4784 -0.98
      vertex 1.65 -14.825 -0.98
      vertex 1.03934 -10.6945 -0.98
    endloop
  endfacet
  facet normal 1.22461e-016 2.22045e-016 -1
    outer loop
      vertex 1.22598 -10.2439 -0.98
      vertex 1.65 -14.825 -0.98
      vertex 1.15485 -10.4784 -0.98
    endloop
  endfacet
  facet normal 1.22461e-016 2.22045e-016 -1
    outer loop
      vertex 1.25 -10 -0.98
      vertex 1.65 -14.825 -0.98
      vertex 1.22598 -10.2439 -0.98
    endloop
  endfacet
  facet normal 1.22461e-016 2.22045e-016 -1
    outer loop
      vertex 1.65 -2.55 -0.98
      vertex 1.65 -14.825 -0.98
      vertex 1.25 -10 -0.98
    endloop
  endfacet
  facet normal 1.22461e-016 2.22045e-016 -1
    outer loop
      vertex 1.15485 -9.52165 -0.98
      vertex 1.65 -2.55 -0.98
      vertex 1.22598 -9.75614 -0.98
    endloop
  endfacet
  facet normal 1.22461e-016 2.22045e-016 -1
    outer loop
      vertex 1.03934 -9.30554 -0.98
      vertex 1.65 -2.55 -0.98
      vertex 1.15485 -9.52165 -0.98
    endloop
  endfacet
  facet normal 1.22461e-016 2.22045e-016 -1
    outer loop
      vertex 0.883883 -9.11612 -0.98
      vertex 1.65 -2.55 -0.98
      vertex 1.03934 -9.30554 -0.98
    endloop
  endfacet
  facet normal 1.22461e-016 2.22045e-016 -1
    outer loop
      vertex 0.694463 -8.96066 -0.98
      vertex 1.65 -2.55 -0.98
      vertex 0.883883 -9.11612 -0.98
    endloop
  endfacet
  facet normal 1.22461e-016 2.22045e-016 -1
    outer loop
      vertex 0.478354 -8.84515 -0.98
      vertex 1.65 -2.55 -0.98
      vertex 0.694463 -8.96066 -0.98
    endloop
  endfacet
  facet normal 1.22461e-016 2.22045e-016 -1
    outer loop
      vertex 0.243863 -8.77402 -0.98
      vertex 1.65 -2.55 -0.98
      vertex 0.478354 -8.84515 -0.98
    endloop
  endfacet
  facet normal 1.22461e-016 2.22045e-016 -1
    outer loop
      vertex 0 -8.75 -0.98
      vertex 1.65 -2.55 -0.98
      vertex 0.243863 -8.77402 -0.98
    endloop
  endfacet
  facet normal 1.22461e-016 2.22045e-016 -1
    outer loop
      vertex -0.243863 -8.77402 -0.98
      vertex 1.65 -2.55 -0.98
      vertex 0 -8.75 -0.98
    endloop
  endfacet
  facet normal 1.22461e-016 2.22045e-016 -1
    outer loop
      vertex -0.478354 -8.84515 -0.98
      vertex 1.65 -2.55 -0.98
      vertex -0.243863 -8.77402 -0.98
    endloop
  endfacet
  facet normal 1.22461e-016 2.22045e-016 -1
    outer loop
      vertex -0.694463 -8.96066 -0.98
      vertex 1.65 -2.55 -0.98
      vertex -0.478354 -8.84515 -0.98
    endloop
  endfacet
  facet normal 1.22461e-016 2.22045e-016 -1
    outer loop
      vertex -0.883883 -9.11612 -0.98
      vertex 1.65 -2.55 -0.98
      vertex -0.694463 -8.96066 -0.98
    endloop
  endfacet
  facet normal 1.22461e-016 2.22045e-016 -1
    outer loop
      vertex -1.03934 -9.30554 -0.98
      vertex 1.65 -2.55 -0.98
      vertex -0.883883 -9.11612 -0.98
    endloop
  endfacet
  facet normal 1.22461e-016 2.22045e-016 -1
    outer loop
      vertex -1.15485 -9.52165 -0.98
      vertex -1.65 -2.55 -0.98
      vertex -1.03934 -9.30554 -0.98
    endloop
  endfacet
  facet normal 1.22461e-016 2.22045e-016 -1
    outer loop
      vertex -1.22598 -9.75614 -0.98
      vertex -1.65 -2.55 -0.98
      vertex -1.15485 -9.52165 -0.98
    endloop
  endfacet
  facet normal 1.22461e-016 2.22045e-016 -1
    outer loop
      vertex -1.25 -10 -0.98
      vertex -1.65 -2.55 -0.98
      vertex -1.22598 -9.75614 -0.98
    endloop
  endfacet
  facet normal 1.22461e-016 2.22045e-016 -1
    outer loop
      vertex -0.478354 -11.1548 -0.98
      vertex -1.65 -14.825 -0.98
      vertex -0.694463 -11.0393 -0.98
    endloop
  endfacet
  facet normal -1 0 0
    outer loop
      vertex -2.8 -14.8 3.28626e-015
      vertex -2.8 -14.8 0.02
      vertex -2.8 -2.4 5.32907e-016
    endloop
  endfacet
  facet normal -1 0 0
    outer loop
      vertex -2.8 -2.4 5.32907e-016
      vertex -2.8 -14.8 0.02
      vertex -2.8 -2.4 0.02
    endloop
  endfacet
  facet normal 0 1 -2.22045e-016
    outer loop
      vertex -2.777 -2.4 5.32907e-016
      vertex -2.8 -2.4 5.32907e-016
      vertex -2.8 -2.4 0.02
    endloop
  endfacet
  facet normal 0 -2.22045e-016 -1
    outer loop
      vertex -2.8 -14.8 3.28626e-015
      vertex -2.8 -2.4 5.32907e-016
      vertex -2.777 -14.8 3.28626e-015
    endloop
  endfacet
  facet normal 0 -2.22045e-016 -1
    outer loop
      vertex -2.777 -14.8 3.28626e-015
      vertex -2.8 -2.4 5.32907e-016
      vertex -2.777 -2.4 5.32907e-016
    endloop
  endfacet
  facet normal 0 -1 2.22045e-016
    outer loop
      vertex -2.8 -14.8 0.02
      vertex -2.8 -14.8 3.28626e-015
      vertex -2.777 -14.8 3.28626e-015
    endloop
  endfacet
  facet normal 0 2.22045e-016 1
    outer loop
      vertex -2.8 -2.4 2.6
      vertex -2.8 -14.8 2.6
      vertex -1.65 -14.8 2.6
    endloop
  endfacet
  facet normal 0 2.22045e-016 1
    outer loop
      vertex -1.65 -2.4 2.6
      vertex -2.8 -2.4 2.6
      vertex -1.65 -14.8 2.6
    endloop
  endfacet
  facet normal 0 -1 0
    outer loop
      vertex -1.65 -2.55 -0.98
      vertex -1.65 -2.55 -1
      vertex 1.65 -2.55 -1
    endloop
  endfacet
  facet normal 0 -1 0
    outer loop
      vertex 1.65 -2.55 -0.98
      vertex -1.65 -2.55 -0.98
      vertex 1.65 -2.55 -1
    endloop
  endfacet
  facet normal 0 0 -1
    outer loop
      vertex -1.65 -2.55 -1
      vertex -1.65 2.25 -1
      vertex 1.65 -2.55 -1
    endloop
  endfacet
  facet normal 0 0 -1
    outer loop
      vertex 1.65 -2.55 -1
      vertex -1.65 2.25 -1
      vertex 1.65 2.25 -1
    endloop
  endfacet
  facet normal 0 1 0
    outer loop
      vertex -1.65 2.25 -1
      vertex -1.65 2.25 3.7
      vertex 1.65 2.25 -1
    endloop
  endfacet
  facet normal 0 1 0
    outer loop
      vertex 1.65 2.25 -1
      vertex -1.65 2.25 3.7
      vertex 1.65 2.25 3.7
    endloop
  endfacet
  facet normal 0 0 -1
    outer loop
      vertex -2.8 -1.3 3.7
      vertex -2.8 1.3 3.7
      vertex -1.65 -1.3 3.7
    endloop
  endfacet
  facet normal 0 0 -1
    outer loop
      vertex -1.65 -1.3 3.7
      vertex -2.8 1.3 3.7
      vertex -2.7425 1.3 3.7
    endloop
  endfacet
  facet normal 0 0 -1
    outer loop
      vertex -1.65 -1.3 3.7
      vertex -2.7425 1.3 3.7
      vertex -1.65 2.25 3.7
    endloop
  endfacet
  facet normal 0 0 -1
    outer loop
      vertex 1.65 -1.3 3.7
      vertex 2.8 1.3 3.7
      vertex 2.8 -1.3 3.7
    endloop
  endfacet
  facet normal 0 0 -1
    outer loop
      vertex 2.7425 1.3 3.7
      vertex 2.8 1.3 3.7
      vertex 1.65 -1.3 3.7
    endloop
  endfacet
  facet normal 0 0 -1
    outer loop
      vertex 1.65 2.25 3.7
      vertex 2.7425 1.3 3.7
      vertex 1.65 -1.3 3.7
    endloop
  endfacet
  facet normal 0 -1 0
    outer loop
      vertex -2.8 -1.3 16.1
      vertex -2.8 -1.3 3.7
      vertex -1.65 -1.3 3.7
    endloop
  endfacet
  facet normal 0 -1 0
    outer loop
      vertex -1.65 -1.3 16.1
      vertex -2.8 -1.3 16.1
      vertex -1.65 -1.3 3.7
    endloop
  endfacet
  facet normal 0 0 1
    outer loop
      vertex 1.65 -1.3 16.1
      vertex 2.8 -1.3 16.1
      vertex -2.8 1.3 16.1
    endloop
  endfacet
  facet normal 0 0 1
    outer loop
      vertex -2.8 1.3 16.1
      vertex -2.8 -1.3 16.1
      vertex -1.65 -1.3 16.1
    endloop
  endfacet
  facet normal 0 0 1
    outer loop
      vertex 1.65 -2.3 16.1
      vertex -2.8 1.3 16.1
      vertex -1.65 -1.3 16.1
    endloop
  endfacet
  facet normal 0 0 1
    outer loop
      vertex -1.65 -2.3 16.1
      vertex 1.65 -2.3 16.1
      vertex -1.65 -1.3 16.1
    endloop
  endfacet
  facet normal 0 0 1
    outer loop
      vertex 1.65 -2.3 16.1
      vertex 1.65 -1.3 16.1
      vertex -2.8 1.3 16.1
    endloop
  endfacet
  facet normal 0 0 1
    outer loop
      vertex 2.8 -1.3 16.1
      vertex 2.7425 1.3 16.1
      vertex -2.7425 1.3 16.1
    endloop
  endfacet
  facet normal 0 0 1
    outer loop
      vertex 2.8 -1.3 16.1
      vertex 2.8 1.3 16.1
      vertex 2.7425 1.3 16.1
    endloop
  endfacet
  facet normal 0 0 1
    outer loop
      vertex 2.8 -1.3 16.1
      vertex -2.7425 1.3 16.1
      vertex -2.8 1.3 16.1
    endloop
  endfacet
  facet normal 0 0 1
    outer loop
      vertex 2.7425 1.3 16.1
      vertex 1.65 2.25 16.1
      vertex -2.7425 1.3 16.1
    endloop
  endfacet
  facet normal 0 0 1
    outer loop
      vertex -1.65 2.25 16.1
      vertex -2.7425 1.3 16.1
      vertex 1.65 2.25 16.1
    endloop
  endfacet
  facet normal 0 -1 0
    outer loop
      vertex -1.03934 -2.3 9.30554
      vertex -1.65 -2.3 3.8
      vertex 1.65 -2.3 3.8
    endloop
  endfacet
  facet normal 0 -1 0
    outer loop
      vertex -1.25 -2.3 10
      vertex -1.65 -2.3 3.8
      vertex -1.22598 -2.3 9.75614
    endloop
  endfacet
  facet normal 0 -1 0
    outer loop
      vertex -1.65 -2.3 16.1
      vertex -1.65 -2.3 3.8
      vertex -1.25 -2.3 10
    endloop
  endfacet
  facet normal 0 -1 0
    outer loop
      vertex -0.883883 -2.3 9.11612
      vertex -1.03934 -2.3 9.30554
      vertex 1.65 -2.3 3.8
    endloop
  endfacet
  facet normal 0 -1 0
    outer loop
      vertex -0.478354 -2.3 8.84515
      vertex -0.694463 -2.3 8.96066
      vertex 1.65 -2.3 3.8
    endloop
  endfacet
  facet normal 0 -1 0
    outer loop
      vertex -1.65 -2.3 16.1
      vertex -1.22598 -2.3 10.2439
      vertex -1.15485 -2.3 10.4784
    endloop
  endfacet
  facet normal 0 -1 0
    outer loop
      vertex -1.65 -2.3 16.1
      vertex -1.15485 -2.3 10.4784
      vertex -1.03934 -2.3 10.6945
    endloop
  endfacet
  facet normal 0 -1 0
    outer loop
      vertex -1.65 -2.3 16.1
      vertex -1.03934 -2.3 10.6945
      vertex -0.883883 -2.3 10.8839
    endloop
  endfacet
  facet normal 0 -1 0
    outer loop
      vertex -2.81659e-016 -2.3 8.75
      vertex -0.243863 -2.3 8.77402
      vertex 1.65 -2.3 3.8
    endloop
  endfacet
  facet normal 0 -1 0
    outer loop
      vertex -1.65 -2.3 16.1
      vertex -0.883883 -2.3 10.8839
      vertex -0.694463 -2.3 11.0393
    endloop
  endfacet
  facet normal 0 -1 0
    outer loop
      vertex -0.243863 -2.3 8.77402
      vertex -0.478354 -2.3 8.84515
      vertex 1.65 -2.3 3.8
    endloop
  endfacet
  facet normal 0 -1 0
    outer loop
      vertex -1.65 -2.3 16.1
      vertex -0.694463 -2.3 11.0393
      vertex -0.478354 -2.3 11.1548
    endloop
  endfacet
  facet normal 0 -1 0
    outer loop
      vertex 1.65 -2.3 16.1
      vertex -1.65 -2.3 16.1
      vertex -0.243863 -2.3 11.226
    endloop
  endfacet
  facet normal 0 -1 0
    outer loop
      vertex 0.478354 -2.3 8.84515
      vertex 0.243863 -2.3 8.77402
      vertex 1.65 -2.3 3.8
    endloop
  endfacet
  facet normal 0 -1 0
    outer loop
      vertex 1.65 -2.3 16.1
      vertex -0.243863 -2.3 11.226
      vertex -2.81659e-016 -2.3 11.25
    endloop
  endfacet
  facet normal 0 -1 0
    outer loop
      vertex 0.243863 -2.3 8.77402
      vertex -2.81659e-016 -2.3 8.75
      vertex 1.65 -2.3 3.8
    endloop
  endfacet
  facet normal 0 -1 0
    outer loop
      vertex 1.65 -2.3 16.1
      vertex -2.81659e-016 -2.3 11.25
      vertex 0.243863 -2.3 11.226
    endloop
  endfacet
  facet normal 0 -1 0
    outer loop
      vertex 1.65 -2.3 16.1
      vertex 0.243863 -2.3 11.226
      vertex 0.478354 -2.3 11.1548
    endloop
  endfacet
  facet normal 0 -1 0
    outer loop
      vertex 0.883883 -2.3 9.11612
      vertex 0.694463 -2.3 8.96066
      vertex 1.65 -2.3 3.8
    endloop
  endfacet
  facet normal 0 -1 0
    outer loop
      vertex 1.65 -2.3 16.1
      vertex 0.478354 -2.3 11.1548
      vertex 0.694463 -2.3 11.0393
    endloop
  endfacet
  facet normal 0 -1 0
    outer loop
      vertex 1.03934 -2.3 9.30554
      vertex 0.883883 -2.3 9.11612
      vertex 1.65 -2.3 3.8
    endloop
  endfacet
  facet normal 0 -1 0
    outer loop
      vertex 1.65 -2.3 16.1
      vertex 0.694463 -2.3 11.0393
      vertex 0.883883 -2.3 10.8839
    endloop
  endfacet
  facet normal 0 -1 0
    outer loop
      vertex 0.694463 -2.3 8.96066
      vertex 0.478354 -2.3 8.84515
      vertex 1.65 -2.3 3.8
    endloop
  endfacet
  facet normal 0 -1 0
    outer loop
      vertex 1.65 -2.3 16.1
      vertex 0.883883 -2.3 10.8839
      vertex 1.03934 -2.3 10.6945
    endloop
  endfacet
  facet normal 0 -1 0
    outer loop
      vertex 1.65 -2.3 16.1
      vertex 1.03934 -2.3 10.6945
      vertex 1.15485 -2.3 10.4784
    endloop
  endfacet
  facet normal 0 -1 0
    outer loop
      vertex 1.22598 -2.3 9.75614
      vertex 1.15485 -2.3 9.52165
      vertex 1.65 -2.3 3.8
    endloop
  endfacet
  facet normal 0 -1 0
    outer loop
      vertex 1.65 -2.3 16.1
      vertex 1.15485 -2.3 10.4784
      vertex 1.22598 -2.3 10.2439
    endloop
  endfacet
  facet normal 0 -1 0
    outer loop
      vertex 1.65 -2.3 16.1
      vertex 1.25 -2.3 10
      vertex 1.65 -2.3 3.8
    endloop
  endfacet
  facet normal 0 -1 0
    outer loop
      vertex 1.65 -2.3 16.1
      vertex 1.22598 -2.3 10.2439
      vertex 1.25 -2.3 10
    endloop
  endfacet
  facet normal 0 -1 0
    outer loop
      vertex 1.25 -2.3 10
      vertex 1.22598 -2.3 9.75614
      vertex 1.65 -2.3 3.8
    endloop
  endfacet
  facet normal 0 -1 0
    outer loop
      vertex 1.15485 -2.3 9.52165
      vertex 1.03934 -2.3 9.30554
      vertex 1.65 -2.3 3.8
    endloop
  endfacet
  facet normal 0 -1 0
    outer loop
      vertex -0.694463 -2.3 8.96066
      vertex -0.883883 -2.3 9.11612
      vertex 1.65 -2.3 3.8
    endloop
  endfacet
  facet normal 0 -1 0
    outer loop
      vertex -1.15485 -2.3 9.52165
      vertex -1.65 -2.3 3.8
      vertex -1.03934 -2.3 9.30554
    endloop
  endfacet
  facet normal 0 -1 0
    outer loop
      vertex -1.22598 -2.3 9.75614
      vertex -1.65 -2.3 3.8
      vertex -1.15485 -2.3 9.52165
    endloop
  endfacet
  facet normal 0 -1 0
    outer loop
      vertex -1.25 -2.3 10
      vertex -1.22598 -2.3 10.2439
      vertex -1.65 -2.3 16.1
    endloop
  endfacet
  facet normal 0 -1 0
    outer loop
      vertex -0.478354 -2.3 11.1548
      vertex -0.243863 -2.3 11.226
      vertex -1.65 -2.3 16.1
    endloop
  endfacet
  facet normal 0 0 1
    outer loop
      vertex -1.65 -2.3 3.8
      vertex -1.65 -2.55 3.8
      vertex 1.65 -2.55 3.8
    endloop
  endfacet
  facet normal 0 0 1
    outer loop
      vertex 1.65 -2.3 3.8
      vertex -1.65 -2.3 3.8
      vertex 1.65 -2.55 3.8
    endloop
  endfacet
  facet normal 0 -1 0
    outer loop
      vertex -1.65 -2.55 3.8
      vertex -1.65 -2.55 3.6
      vertex 1.65 -2.55 3.6
    endloop
  endfacet
  facet normal 0 -1 0
    outer loop
      vertex 1.65 -2.55 3.8
      vertex -1.65 -2.55 3.8
      vertex 1.65 -2.55 3.6
    endloop
  endfacet
  facet normal 0 2.22045e-016 1
    outer loop
      vertex -0.883883 -10.8839 3.6
      vertex -1.65 -14.8 3.6
      vertex 1.65 -14.8 3.6
    endloop
  endfacet
  facet normal 0 2.22045e-016 1
    outer loop
      vertex 1.25 -10 3.6
      vertex 1.22598 -10.2439 3.6
      vertex 1.65 -14.8 3.6
    endloop
  endfacet
  facet normal 0 2.22045e-016 1
    outer loop
      vertex -1.25 -10 3.6
      vertex -1.65 -14.8 3.6
      vertex -1.22598 -10.2439 3.6
    endloop
  endfacet
  facet normal 0 2.22045e-016 1
    outer loop
      vertex -1.65 -2.55 3.6
      vertex -1.65 -14.8 3.6
      vertex -1.25 -10 3.6
    endloop
  endfacet
  facet normal 0 2.22045e-016 1
    outer loop
      vertex -0.694463 -11.0393 3.6
      vertex -0.883883 -10.8839 3.6
      vertex 1.65 -14.8 3.6
    endloop
  endfacet
  facet normal 0 2.22045e-016 1
    outer loop
      vertex 0.243863 -11.226 3.6
      vertex 0 -11.25 3.6
      vertex 1.65 -14.8 3.6
    endloop
  endfacet
  facet normal 0 2.22045e-016 1
    outer loop
      vertex -1.65 -2.55 3.6
      vertex -1.22598 -9.75614 3.6
      vertex -1.15485 -9.52165 3.6
    endloop
  endfacet
  facet normal 0 2.22045e-016 1
    outer loop
      vertex -1.65 -2.55 3.6
      vertex -1.15485 -9.52165 3.6
      vertex -1.03934 -9.30554 3.6
    endloop
  endfacet
  facet normal 0 2.22045e-016 1
    outer loop
      vertex 0 -11.25 3.6
      vertex -0.243863 -11.226 3.6
      vertex 1.65 -14.8 3.6
    endloop
  endfacet
  facet normal 0 2.22045e-016 1
    outer loop
      vertex -1.65 -2.55 3.6
      vertex -1.03934 -9.30554 3.6
      vertex -0.883883 -9.11612 3.6
    endloop
  endfacet
  facet normal 0 2.22045e-016 1
    outer loop
      vertex -0.243863 -11.226 3.6
      vertex -0.478354 -11.1548 3.6
      vertex 1.65 -14.8 3.6
    endloop
  endfacet
  facet normal 0 2.22045e-016 1
    outer loop
      vertex -1.65 -2.55 3.6
      vertex -0.883883 -9.11612 3.6
      vertex -0.694463 -8.96066 3.6
    endloop
  endfacet
  facet normal 0 2.22045e-016 1
    outer loop
      vertex -1.65 -2.55 3.6
      vertex -0.694463 -8.96066 3.6
      vertex -0.478354 -8.84515 3.6
    endloop
  endfacet
  facet normal 0 2.22045e-016 1
    outer loop
      vertex 0.478354 -11.1548 3.6
      vertex 0.243863 -11.226 3.6
      vertex 1.65 -14.8 3.6
    endloop
  endfacet
  facet normal 0 2.22045e-016 1
    outer loop
      vertex -1.65 -2.55 3.6
      vertex -0.478354 -8.84515 3.6
      vertex -0.243863 -8.77402 3.6
    endloop
  endfacet
  facet normal 0 2.22045e-016 1
    outer loop
      vertex 1.22598 -10.2439 3.6
      vertex 1.15485 -10.4784 3.6
      vertex 1.65 -14.8 3.6
    endloop
  endfacet
  facet normal 0 2.22045e-016 1
    outer loop
      vertex -1.65 -2.55 3.6
      vertex -0.243863 -8.77402 3.6
      vertex 0 -8.75 3.6
    endloop
  endfacet
  facet normal 0 2.22045e-016 1
    outer loop
      vertex 1.65 -2.55 3.6
      vertex -1.65 -2.55 3.6
      vertex 0.243863 -8.77402 3.6
    endloop
  endfacet
  facet normal 0 2.22045e-016 1
    outer loop
      vertex 0.694463 -11.0393 3.6
      vertex 0.478354 -11.1548 3.6
      vertex 1.65 -14.8 3.6
    endloop
  endfacet
  facet normal 0 2.22045e-016 1
    outer loop
      vertex 1.65 -2.55 3.6
      vertex 0.243863 -8.77402 3.6
      vertex 0.478354 -8.84515 3.6
    endloop
  endfacet
  facet normal 0 2.22045e-016 1
    outer loop
      vertex 1.65 -2.55 3.6
      vertex 0.478354 -8.84515 3.6
      vertex 0.694463 -8.96066 3.6
    endloop
  endfacet
  facet normal 0 2.22045e-016 1
    outer loop
      vertex 1.03934 -10.6945 3.6
      vertex 0.883883 -10.8839 3.6
      vertex 1.65 -14.8 3.6
    endloop
  endfacet
  facet normal 0 2.22045e-016 1
    outer loop
      vertex 1.65 -2.55 3.6
      vertex 0.694463 -8.96066 3.6
      vertex 0.883883 -9.11612 3.6
    endloop
  endfacet
  facet normal 0 2.22045e-016 1
    outer loop
      vertex 1.15485 -10.4784 3.6
      vertex 1.03934 -10.6945 3.6
      vertex 1.65 -14.8 3.6
    endloop
  endfacet
  facet normal 0 2.22045e-016 1
    outer loop
      vertex 1.65 -2.55 3.6
      vertex 0.883883 -9.11612 3.6
      vertex 1.03934 -9.30554 3.6
    endloop
  endfacet
  facet normal 0 2.22045e-016 1
    outer loop
      vertex 0.883883 -10.8839 3.6
      vertex 0.694463 -11.0393 3.6
      vertex 1.65 -14.8 3.6
    endloop
  endfacet
  facet normal 0 2.22045e-016 1
    outer loop
      vertex 1.65 -2.55 3.6
      vertex 1.03934 -9.30554 3.6
      vertex 1.15485 -9.52165 3.6
    endloop
  endfacet
  facet normal 0 2.22045e-016 1
    outer loop
      vertex 1.65 -2.55 3.6
      vertex 1.15485 -9.52165 3.6
      vertex 1.22598 -9.75614 3.6
    endloop
  endfacet
  facet normal 0 2.22045e-016 1
    outer loop
      vertex 1.65 -2.55 3.6
      vertex 1.25 -10 3.6
      vertex 1.65 -14.8 3.6
    endloop
  endfacet
  facet normal 0 2.22045e-016 1
    outer loop
      vertex 1.65 -2.55 3.6
      vertex 1.22598 -9.75614 3.6
      vertex 1.25 -10 3.6
    endloop
  endfacet
  facet normal 0 2.22045e-016 1
    outer loop
      vertex -0.478354 -11.1548 3.6
      vertex -0.694463 -11.0393 3.6
      vertex 1.65 -14.8 3.6
    endloop
  endfacet
  facet normal 0 2.22045e-016 1
    outer loop
      vertex -1.03934 -10.6945 3.6
      vertex -1.65 -14.8 3.6
      vertex -0.883883 -10.8839 3.6
    endloop
  endfacet
  facet normal 0 2.22045e-016 1
    outer loop
      vertex -1.15485 -10.4784 3.6
      vertex -1.65 -14.8 3.6
      vertex -1.03934 -10.6945 3.6
    endloop
  endfacet
  facet normal 0 2.22045e-016 1
    outer loop
      vertex -1.22598 -10.2439 3.6
      vertex -1.65 -14.8 3.6
      vertex -1.15485 -10.4784 3.6
    endloop
  endfacet
  facet normal 0 2.22045e-016 1
    outer loop
      vertex -1.25 -10 3.6
      vertex -1.22598 -9.75614 3.6
      vertex -1.65 -2.55 3.6
    endloop
  endfacet
  facet normal 0 2.22045e-016 1
    outer loop
      vertex 0 -8.75 3.6
      vertex 0.243863 -8.77402 3.6
      vertex -1.65 -2.55 3.6
    endloop
  endfacet
  facet normal 0 -1 2.22045e-016
    outer loop
      vertex -1.65 -14.8 3.6
      vertex -1.65 -14.8 2.5
      vertex 1.65 -14.8 2.5
    endloop
  endfacet
  facet normal 0 -1 2.22045e-016
    outer loop
      vertex 1.65 -14.8 3.6
      vertex -1.65 -14.8 3.6
      vertex 1.65 -14.8 2.5
    endloop
  endfacet
  facet normal 1 0 0
    outer loop
      vertex 1.65 -2.55 -0.98
      vertex 1.65 -2.55 -1
      vertex 1.65 -2.375 -0.98
    endloop
  endfacet
  facet normal 1 0 0
    outer loop
      vertex 1.65 -2.4 2.6
      vertex 1.65 -14.8 3.6
      vertex 1.65 -14.8 2.6
    endloop
  endfacet
  facet normal 1 0 0
    outer loop
      vertex 1.65 -14.8 2.6
      vertex 1.65 -14.8 3.6
      vertex 1.65 -14.8 2.5
    endloop
  endfacet
  facet normal 1 0 0
    outer loop
      vertex 1.65 -2.55 3.6
      vertex 1.65 -14.8 3.6
      vertex 1.65 -2.4 2.6
    endloop
  endfacet
  facet normal 1 0 0
    outer loop
      vertex 1.65 -2.375 0.02
      vertex 1.65 -2.4 2.6
      vertex 1.65 -2.4 0.02
    endloop
  endfacet
  facet normal 1 0 0
    outer loop
      vertex 1.65 2.25 -1
      vertex 1.65 -2.4 2.6
      vertex 1.65 -2.375 0.02
    endloop
  endfacet
  facet normal 1 0 0
    outer loop
      vertex 1.65 2.25 -1
      vertex 1.65 -2.375 0.02
      vertex 1.65 -2.375 -0.98
    endloop
  endfacet
  facet normal 1 0 0
    outer loop
      vertex 1.65 -2.55 3.8
      vertex 1.65 -1.3 3.7
      vertex 1.65 -2.3 3.8
    endloop
  endfacet
  facet normal 1 0 0
    outer loop
      vertex 1.65 -2.55 -1
      vertex 1.65 2.25 -1
      vertex 1.65 -2.375 -0.98
    endloop
  endfacet
  facet normal 1 0 0
    outer loop
      vertex 1.65 2.25 -1
      vertex 1.65 2.25 3.7
      vertex 1.65 -2.4 2.6
    endloop
  endfacet
  facet normal 1 0 0
    outer loop
      vertex 1.65 -1.3 3.7
      vertex 1.65 -2.55 3.6
      vertex 1.65 2.25 3.7
    endloop
  endfacet
  facet normal 1 0 0
    outer loop
      vertex 1.65 -1.3 3.7
      vertex 1.65 -1.3 16.1
      vertex 1.65 -2.3 3.8
    endloop
  endfacet
  facet normal 1 0 0
    outer loop
      vertex 1.65 2.25 3.7
      vertex 1.65 -2.55 3.6
      vertex 1.65 -2.4 2.6
    endloop
  endfacet
  facet normal 1 0 0
    outer loop
      vertex 1.65 -2.3 16.1
      vertex 1.65 -2.3 3.8
      vertex 1.65 -1.3 16.1
    endloop
  endfacet
  facet normal 1 0 0
    outer loop
      vertex 1.65 -2.55 3.8
      vertex 1.65 -2.55 3.6
      vertex 1.65 -1.3 3.7
    endloop
  endfacet
  facet normal 0 2.22045e-016 1
    outer loop
      vertex 1.65 -2.4 2.6
      vertex 1.65 -14.8 2.6
      vertex 2.8 -14.8 2.6
    endloop
  endfacet
  facet normal 0 2.22045e-016 1
    outer loop
      vertex 2.8 -2.4 2.6
      vertex 1.65 -2.4 2.6
      vertex 2.8 -14.8 2.6
    endloop
  endfacet
  facet normal 1 0 0
    outer loop
      vertex 2.8 -14.8 2.6
      vertex 2.8 -14.8 3.28626e-015
      vertex 2.8 -2.4 5.32907e-016
    endloop
  endfacet
  facet normal 1 0 0
    outer loop
      vertex 2.8 -2.4 2.6
      vertex 2.8 -14.8 2.6
      vertex 2.8 -2.4 5.32907e-016
    endloop
  endfacet
  facet normal 0 -2.22045e-016 -1
    outer loop
      vertex 2.777 -2.4 5.32907e-016
      vertex 2.8 -2.4 5.32907e-016
      vertex 2.777 -14.8 3.28626e-015
    endloop
  endfacet
  facet normal 0 -2.22045e-016 -1
    outer loop
      vertex 2.777 -14.8 3.28626e-015
      vertex 2.8 -2.4 5.32907e-016
      vertex 2.8 -14.8 3.28626e-015
    endloop
  endfacet
  facet normal 0 1 -2.22045e-016
    outer loop
      vertex 1.65 -2.4 0.02
      vertex 1.65 -2.4 2.6
      vertex 2.8 -2.4 0.02
    endloop
  endfacet
  facet normal 0 1 -2.22045e-016
    outer loop
      vertex 2.8 -2.4 0.02
      vertex 1.65 -2.4 2.6
      vertex 2.8 -2.4 2.6
    endloop
  endfacet
  facet normal 0 1 -2.22045e-016
    outer loop
      vertex 2.8 -2.4 0.02
      vertex 2.8 -2.4 2.6
      vertex 2.8 -2.4 5.32907e-016
    endloop
  endfacet
  facet normal 0 1 -2.22045e-016
    outer loop
      vertex 2.8 -2.4 0.02
      vertex 2.8 -2.4 5.32907e-016
      vertex 2.777 -2.4 5.32907e-016
    endloop
  endfacet
  facet normal -1.22461e-016 -2.22045e-016 1
    outer loop
      vertex 1.65 -2.375 0.02
      vertex 1.65 -2.4 0.02
      vertex 2.8 -2.4 0.02
    endloop
  endfacet
  facet normal -1.22461e-016 -2.22045e-016 1
    outer loop
      vertex 2.8 -2.375 0.02
      vertex 1.65 -2.375 0.02
      vertex 2.8 -2.4 0.02
    endloop
  endfacet
  facet normal -2.17149e-032 1 1.77321e-016
    outer loop
      vertex 1.65 -2.375 0.02
      vertex 2.8 -2.375 0.02
      vertex 1.65 -2.375 -0.98
    endloop
  endfacet
  facet normal 0.995185 -0.0980155 0
    outer loop
      vertex -1.22598 -9.75614 -0.98
      vertex -1.22598 -9.75614 3.6
      vertex -1.25 -10 3.6
    endloop
  endfacet
  facet normal 0.995185 -0.0980155 0
    outer loop
      vertex -1.25 -10 -0.98
      vertex -1.22598 -9.75614 -0.98
      vertex -1.25 -10 3.6
    endloop
  endfacet
  facet normal 0.995185 0.0980155 0
    outer loop
      vertex -1.25 -10 3.6
      vertex -1.22598 -10.2439 3.6
      vertex -1.22598 -10.2439 -0.98
    endloop
  endfacet
  facet normal 0.995185 0.0980155 0
    outer loop
      vertex -1.25 -10 -0.98
      vertex -1.25 -10 3.6
      vertex -1.22598 -10.2439 -0.98
    endloop
  endfacet
  facet normal 0.956939 -0.290288 0
    outer loop
      vertex -1.15485 -9.52165 -0.98
      vertex -1.15485 -9.52165 3.6
      vertex -1.22598 -9.75614 3.6
    endloop
  endfacet
  facet normal 0.956939 -0.290288 0
    outer loop
      vertex -1.22598 -9.75614 -0.98
      vertex -1.15485 -9.52165 -0.98
      vertex -1.22598 -9.75614 3.6
    endloop
  endfacet
  facet normal 0.881922 -0.471395 0
    outer loop
      vertex -1.03934 -9.30554 -0.98
      vertex -1.03934 -9.30554 3.6
      vertex -1.15485 -9.52165 3.6
    endloop
  endfacet
  facet normal 0.881922 -0.471395 0
    outer loop
      vertex -1.15485 -9.52165 -0.98
      vertex -1.03934 -9.30554 -0.98
      vertex -1.15485 -9.52165 3.6
    endloop
  endfacet
  facet normal 0.773008 -0.634396 0
    outer loop
      vertex -0.883883 -9.11612 -0.98
      vertex -0.883883 -9.11612 3.6
      vertex -1.03934 -9.30554 3.6
    endloop
  endfacet
  facet normal 0.773008 -0.634396 0
    outer loop
      vertex -1.03934 -9.30554 -0.98
      vertex -0.883883 -9.11612 -0.98
      vertex -1.03934 -9.30554 3.6
    endloop
  endfacet
  facet normal 0.634396 -0.773008 0
    outer loop
      vertex -0.694463 -8.96066 -0.98
      vertex -0.694463 -8.96066 3.6
      vertex -0.883883 -9.11612 3.6
    endloop
  endfacet
  facet normal 0.634396 -0.773008 0
    outer loop
      vertex -0.883883 -9.11612 -0.98
      vertex -0.694463 -8.96066 -0.98
      vertex -0.883883 -9.11612 3.6
    endloop
  endfacet
  facet normal 0.471395 -0.881922 0
    outer loop
      vertex -0.478354 -8.84515 -0.98
      vertex -0.478354 -8.84515 3.6
      vertex -0.694463 -8.96066 3.6
    endloop
  endfacet
  facet normal 0.471395 -0.881922 0
    outer loop
      vertex -0.694463 -8.96066 -0.98
      vertex -0.478354 -8.84515 -0.98
      vertex -0.694463 -8.96066 3.6
    endloop
  endfacet
  facet normal 0.290288 -0.956939 0
    outer loop
      vertex -0.243863 -8.77402 -0.98
      vertex -0.243863 -8.77402 3.6
      vertex -0.478354 -8.84515 3.6
    endloop
  endfacet
  facet normal 0.290288 -0.956939 0
    outer loop
      vertex -0.478354 -8.84515 -0.98
      vertex -0.243863 -8.77402 -0.98
      vertex -0.478354 -8.84515 3.6
    endloop
  endfacet
  facet normal 0.0980155 -0.995185 0
    outer loop
      vertex 0 -8.75 -0.98
      vertex 0 -8.75 3.6
      vertex -0.243863 -8.77402 3.6
    endloop
  endfacet
  facet normal 0.0980155 -0.995185 0
    outer loop
      vertex -0.243863 -8.77402 -0.98
      vertex 0 -8.75 -0.98
      vertex -0.243863 -8.77402 3.6
    endloop
  endfacet
  facet normal -0.0980155 -0.995185 0
    outer loop
      vertex 0.243863 -8.77402 -0.98
      vertex 0.243863 -8.77402 3.6
      vertex 0 -8.75 3.6
    endloop
  endfacet
  facet normal -0.0980155 -0.995185 0
    outer loop
      vertex 0 -8.75 -0.98
      vertex 0.243863 -8.77402 -0.98
      vertex 0 -8.75 3.6
    endloop
  endfacet
  facet normal -0.290288 -0.956939 0
    outer loop
      vertex 0.478354 -8.84515 -0.98
      vertex 0.478354 -8.84515 3.6
      vertex 0.243863 -8.77402 3.6
    endloop
  endfacet
  facet normal -0.290288 -0.956939 0
    outer loop
      vertex 0.243863 -8.77402 -0.98
      vertex 0.478354 -8.84515 -0.98
      vertex 0.243863 -8.77402 3.6
    endloop
  endfacet
  facet normal -0.471395 -0.881922 0
    outer loop
      vertex 0.694463 -8.96066 -0.98
      vertex 0.694463 -8.96066 3.6
      vertex 0.478354 -8.84515 3.6
    endloop
  endfacet
  facet normal -0.471395 -0.881922 0
    outer loop
      vertex 0.478354 -8.84515 -0.98
      vertex 0.694463 -8.96066 -0.98
      vertex 0.478354 -8.84515 3.6
    endloop
  endfacet
  facet normal -0.634396 -0.773008 0
    outer loop
      vertex 0.883883 -9.11612 -0.98
      vertex 0.883883 -9.11612 3.6
      vertex 0.694463 -8.96066 3.6
    endloop
  endfacet
  facet normal -0.634396 -0.773008 0
    outer loop
      vertex 0.694463 -8.96066 -0.98
      vertex 0.883883 -9.11612 -0.98
      vertex 0.694463 -8.96066 3.6
    endloop
  endfacet
  facet normal -0.773008 -0.634396 0
    outer loop
      vertex 1.03934 -9.30554 3.6
      vertex 0.883883 -9.11612 3.6
      vertex 1.03934 -9.30554 -0.98
    endloop
  endfacet
  facet normal -0.773008 -0.634396 0
    outer loop
      vertex 1.03934 -9.30554 -0.98
      vertex 0.883883 -9.11612 3.6
      vertex 0.883883 -9.11612 -0.98
    endloop
  endfacet
  facet normal -0.881922 -0.471395 0
    outer loop
      vertex 1.15485 -9.52165 3.6
      vertex 1.03934 -9.30554 3.6
      vertex 1.15485 -9.52165 -0.98
    endloop
  endfacet
  facet normal -0.881922 -0.471395 0
    outer loop
      vertex 1.15485 -9.52165 -0.98
      vertex 1.03934 -9.30554 3.6
      vertex 1.03934 -9.30554 -0.98
    endloop
  endfacet
  facet normal -0.956939 -0.290288 0
    outer loop
      vertex 1.22598 -9.75614 3.6
      vertex 1.15485 -9.52165 3.6
      vertex 1.22598 -9.75614 -0.98
    endloop
  endfacet
  facet normal -0.956939 -0.290288 0
    outer loop
      vertex 1.22598 -9.75614 -0.98
      vertex 1.15485 -9.52165 3.6
      vertex 1.15485 -9.52165 -0.98
    endloop
  endfacet
  facet normal -0.995185 -0.0980155 0
    outer loop
      vertex 1.25 -10 3.6
      vertex 1.22598 -9.75614 3.6
      vertex 1.25 -10 -0.98
    endloop
  endfacet
  facet normal -0.995185 -0.0980155 0
    outer loop
      vertex 1.25 -10 -0.98
      vertex 1.22598 -9.75614 3.6
      vertex 1.22598 -9.75614 -0.98
    endloop
  endfacet
  facet normal -0.995185 0.0980155 0
    outer loop
      vertex 1.25 -10 3.6
      vertex 1.25 -10 -0.98
      vertex 1.22598 -10.2439 3.6
    endloop
  endfacet
  facet normal -0.995185 0.0980155 0
    outer loop
      vertex 1.22598 -10.2439 3.6
      vertex 1.25 -10 -0.98
      vertex 1.22598 -10.2439 -0.98
    endloop
  endfacet
  facet normal -0.956939 0.290288 0
    outer loop
      vertex 1.22598 -10.2439 3.6
      vertex 1.22598 -10.2439 -0.98
      vertex 1.15485 -10.4784 3.6
    endloop
  endfacet
  facet normal -0.956939 0.290288 0
    outer loop
      vertex 1.15485 -10.4784 3.6
      vertex 1.22598 -10.2439 -0.98
      vertex 1.15485 -10.4784 -0.98
    endloop
  endfacet
  facet normal -0.881922 0.471395 0
    outer loop
      vertex 1.15485 -10.4784 3.6
      vertex 1.15485 -10.4784 -0.98
      vertex 1.03934 -10.6945 3.6
    endloop
  endfacet
  facet normal -0.881922 0.471395 0
    outer loop
      vertex 1.03934 -10.6945 3.6
      vertex 1.15485 -10.4784 -0.98
      vertex 1.03934 -10.6945 -0.98
    endloop
  endfacet
  facet normal -0.773008 0.634396 0
    outer loop
      vertex 1.03934 -10.6945 3.6
      vertex 1.03934 -10.6945 -0.98
      vertex 0.883883 -10.8839 3.6
    endloop
  endfacet
  facet normal -0.773008 0.634396 0
    outer loop
      vertex 0.883883 -10.8839 3.6
      vertex 1.03934 -10.6945 -0.98
      vertex 0.883883 -10.8839 -0.98
    endloop
  endfacet
  facet normal -0.634396 0.773008 0
    outer loop
      vertex 0.883883 -10.8839 3.6
      vertex 0.883883 -10.8839 -0.98
      vertex 0.694463 -11.0393 3.6
    endloop
  endfacet
  facet normal -0.634396 0.773008 0
    outer loop
      vertex 0.694463 -11.0393 3.6
      vertex 0.883883 -10.8839 -0.98
      vertex 0.694463 -11.0393 -0.98
    endloop
  endfacet
  facet normal -0.471395 0.881922 0
    outer loop
      vertex 0.694463 -11.0393 3.6
      vertex 0.694463 -11.0393 -0.98
      vertex 0.478354 -11.1548 3.6
    endloop
  endfacet
  facet normal -0.471395 0.881922 0
    outer loop
      vertex 0.478354 -11.1548 3.6
      vertex 0.694463 -11.0393 -0.98
      vertex 0.478354 -11.1548 -0.98
    endloop
  endfacet
  facet normal -0.290288 0.956939 0
    outer loop
      vertex 0.478354 -11.1548 3.6
      vertex 0.478354 -11.1548 -0.98
      vertex 0.243863 -11.226 3.6
    endloop
  endfacet
  facet normal -0.290288 0.956939 0
    outer loop
      vertex 0.243863 -11.226 3.6
      vertex 0.478354 -11.1548 -0.98
      vertex 0.243863 -11.226 -0.98
    endloop
  endfacet
  facet normal -0.0980155 0.995185 0
    outer loop
      vertex 0.243863 -11.226 3.6
      vertex 0.243863 -11.226 -0.98
      vertex 0 -11.25 3.6
    endloop
  endfacet
  facet normal -0.0980155 0.995185 0
    outer loop
      vertex 0 -11.25 3.6
      vertex 0.243863 -11.226 -0.98
      vertex 0 -11.25 -0.98
    endloop
  endfacet
  facet normal 0.0980155 0.995185 0
    outer loop
      vertex 0 -11.25 3.6
      vertex 0 -11.25 -0.98
      vertex -0.243863 -11.226 3.6
    endloop
  endfacet
  facet normal 0.0980155 0.995185 0
    outer loop
      vertex -0.243863 -11.226 3.6
      vertex 0 -11.25 -0.98
      vertex -0.243863 -11.226 -0.98
    endloop
  endfacet
  facet normal 0.290288 0.956939 0
    outer loop
      vertex -0.243863 -11.226 3.6
      vertex -0.243863 -11.226 -0.98
      vertex -0.478354 -11.1548 3.6
    endloop
  endfacet
  facet normal 0.290288 0.956939 0
    outer loop
      vertex -0.478354 -11.1548 3.6
      vertex -0.243863 -11.226 -0.98
      vertex -0.478354 -11.1548 -0.98
    endloop
  endfacet
  facet normal 0.471395 0.881922 0
    outer loop
      vertex -0.478354 -11.1548 3.6
      vertex -0.478354 -11.1548 -0.98
      vertex -0.694463 -11.0393 3.6
    endloop
  endfacet
  facet normal 0.471395 0.881922 0
    outer loop
      vertex -0.694463 -11.0393 3.6
      vertex -0.478354 -11.1548 -0.98
      vertex -0.694463 -11.0393 -0.98
    endloop
  endfacet
  facet normal 0.634396 0.773008 0
    outer loop
      vertex -0.694463 -11.0393 3.6
      vertex -0.694463 -11.0393 -0.98
      vertex -0.883883 -10.8839 3.6
    endloop
  endfacet
  facet normal 0.634396 0.773008 0
    outer loop
      vertex -0.883883 -10.8839 3.6
      vertex -0.694463 -11.0393 -0.98
      vertex -0.883883 -10.8839 -0.98
    endloop
  endfacet
  facet normal 0.773008 0.634396 0
    outer loop
      vertex -1.03934 -10.6945 3.6
      vertex -0.883883 -10.8839 3.6
      vertex -0.883883 -10.8839 -0.98
    endloop
  endfacet
  facet normal 0.773008 0.634396 0
    outer loop
      vertex -1.03934 -10.6945 -0.98
      vertex -1.03934 -10.6945 3.6
      vertex -0.883883 -10.8839 -0.98
    endloop
  endfacet
  facet normal 0.881922 0.471395 0
    outer loop
      vertex -1.15485 -10.4784 3.6
      vertex -1.03934 -10.6945 3.6
      vertex -1.03934 -10.6945 -0.98
    endloop
  endfacet
  facet normal 0.881922 0.471395 0
    outer loop
      vertex -1.15485 -10.4784 -0.98
      vertex -1.15485 -10.4784 3.6
      vertex -1.03934 -10.6945 -0.98
    endloop
  endfacet
  facet normal 0.956939 0.290288 0
    outer loop
      vertex -1.22598 -10.2439 3.6
      vertex -1.15485 -10.4784 3.6
      vertex -1.15485 -10.4784 -0.98
    endloop
  endfacet
  facet normal 0.956939 0.290288 0
    outer loop
      vertex -1.22598 -10.2439 -0.98
      vertex -1.22598 -10.2439 3.6
      vertex -1.15485 -10.4784 -0.98
    endloop
  endfacet
  facet normal 0 -1 0
    outer loop
      vertex 1.65 -1.3 16.1
      vertex 1.65 -1.3 3.7
      vertex 2.8 -1.3 3.7
    endloop
  endfacet
  facet normal 0 -1 0
    outer loop
      vertex 2.8 -1.3 16.1
      vertex 1.65 -1.3 16.1
      vertex 2.8 -1.3 3.7
    endloop
  endfacet
  facet normal 1 0 0
    outer loop
      vertex 2.8 -1.3 16.1
      vertex 2.8 -1.3 3.7
      vertex 2.8 1.3 3.7
    endloop
  endfacet
  facet normal 1 0 0
    outer loop
      vertex 2.8 1.3 16.1
      vertex 2.8 -1.3 16.1
      vertex 2.8 1.3 3.7
    endloop
  endfacet
  facet normal 0 1 0
    outer loop
      vertex 2.7425 1.3 3.7
      vertex 2.7425 1.3 16.1
      vertex 2.8 1.3 3.7
    endloop
  endfacet
  facet normal 0 1 0
    outer loop
      vertex 2.8 1.3 3.7
      vertex 2.7425 1.3 16.1
      vertex 2.8 1.3 16.1
    endloop
  endfacet
  facet normal 0.656179 0.754606 0
    outer loop
      vertex 1.65 2.25 3.7
      vertex 1.65 2.25 16.1
      vertex 2.7425 1.3 3.7
    endloop
  endfacet
  facet normal 0.656179 0.754606 0
    outer loop
      vertex 2.7425 1.3 3.7
      vertex 1.65 2.25 16.1
      vertex 2.7425 1.3 16.1
    endloop
  endfacet
  facet normal 0 1 0
    outer loop
      vertex 0.694463 2.25 11.0393
      vertex -1.65 2.25 16.1
      vertex 1.65 2.25 16.1
    endloop
  endfacet
  facet normal 0 1 0
    outer loop
      vertex -1.65 2.25 3.7
      vertex -1.65 2.25 16.1
      vertex -1.25 2.25 10
    endloop
  endfacet
  facet normal 0 1 0
    outer loop
      vertex -1.65 2.25 3.7
      vertex -1.25 2.25 10
      vertex -1.22598 2.25 9.75614
    endloop
  endfacet
  facet normal 0 1 0
    outer loop
      vertex -1.65 2.25 3.7
      vertex -1.22598 2.25 9.75614
      vertex -1.15485 2.25 9.52165
    endloop
  endfacet
  facet normal 0 1 0
    outer loop
      vertex -1.65 2.25 3.7
      vertex -1.15485 2.25 9.52165
      vertex 1.65 2.25 3.7
    endloop
  endfacet
  facet normal 0 1 0
    outer loop
      vertex -1.15485 2.25 9.52165
      vertex -1.03934 2.25 9.30554
      vertex 1.65 2.25 3.7
    endloop
  endfacet
  facet normal 0 1 0
    outer loop
      vertex -0.694463 2.25 8.96066
      vertex 1.65 2.25 3.7
      vertex -0.883883 2.25 9.11612
    endloop
  endfacet
  facet normal 0 1 0
    outer loop
      vertex 0.478354 2.25 8.84515
      vertex 1.65 2.25 3.7
      vertex 0.243863 2.25 8.77402
    endloop
  endfacet
  facet normal 0 1 0
    outer loop
      vertex -1.03934 2.25 10.6945
      vertex -1.65 2.25 16.1
      vertex -0.883883 2.25 10.8839
    endloop
  endfacet
  facet normal 0 1 0
    outer loop
      vertex -0.694463 2.25 8.96066
      vertex -0.478354 2.25 8.84515
      vertex 1.65 2.25 3.7
    endloop
  endfacet
  facet normal 0 1 0
    outer loop
      vertex -0.883883 2.25 10.8839
      vertex -1.65 2.25 16.1
      vertex -0.694463 2.25 11.0393
    endloop
  endfacet
  facet normal 0 1 0
    outer loop
      vertex -0.478354 2.25 8.84515
      vertex -0.243863 2.25 8.77402
      vertex 1.65 2.25 3.7
    endloop
  endfacet
  facet normal 0 1 0
    outer loop
      vertex -0.243863 2.25 8.77402
      vertex 2.75536e-016 2.25 8.75
      vertex 1.65 2.25 3.7
    endloop
  endfacet
  facet normal 0 1 0
    outer loop
      vertex -0.694463 2.25 11.0393
      vertex -1.65 2.25 16.1
      vertex -0.478354 2.25 11.1548
    endloop
  endfacet
  facet normal 0 1 0
    outer loop
      vertex 2.75536e-016 2.25 8.75
      vertex 0.243863 2.25 8.77402
      vertex 1.65 2.25 3.7
    endloop
  endfacet
  facet normal 0 1 0
    outer loop
      vertex -0.478354 2.25 11.1548
      vertex -1.65 2.25 16.1
      vertex -0.243863 2.25 11.226
    endloop
  endfacet
  facet normal 0 1 0
    outer loop
      vertex 1.65 2.25 3.7
      vertex 0.478354 2.25 8.84515
      vertex 0.694463 2.25 8.96066
    endloop
  endfacet
  facet normal 0 1 0
    outer loop
      vertex 1.65 2.25 3.7
      vertex 0.694463 2.25 8.96066
      vertex 0.883883 2.25 9.11612
    endloop
  endfacet
  facet normal 0 1 0
    outer loop
      vertex 1.65 2.25 3.7
      vertex 0.883883 2.25 9.11612
      vertex 1.03934 2.25 9.30554
    endloop
  endfacet
  facet normal 0 1 0
    outer loop
      vertex 1.65 2.25 3.7
      vertex 1.03934 2.25 9.30554
      vertex 1.15485 2.25 9.52165
    endloop
  endfacet
  facet normal 0 1 0
    outer loop
      vertex 1.65 2.25 3.7
      vertex 1.15485 2.25 9.52165
      vertex 1.22598 2.25 9.75614
    endloop
  endfacet
  facet normal 0 1 0
    outer loop
      vertex 1.65 2.25 3.7
      vertex 1.22598 2.25 9.75614
      vertex 1.25 2.25 10
    endloop
  endfacet
  facet normal 0 1 0
    outer loop
      vertex 1.65 2.25 3.7
      vertex 1.25 2.25 10
      vertex 1.65 2.25 16.1
    endloop
  endfacet
  facet normal 0 1 0
    outer loop
      vertex 1.15485 2.25 10.4784
      vertex 1.65 2.25 16.1
      vertex 1.22598 2.25 10.2439
    endloop
  endfacet
  facet normal 0 1 0
    outer loop
      vertex 1.03934 2.25 10.6945
      vertex 1.65 2.25 16.1
      vertex 1.15485 2.25 10.4784
    endloop
  endfacet
  facet normal 0 1 0
    outer loop
      vertex 0.883883 2.25 10.8839
      vertex 1.65 2.25 16.1
      vertex 1.03934 2.25 10.6945
    endloop
  endfacet
  facet normal 0 1 0
    outer loop
      vertex 0.694463 2.25 11.0393
      vertex 1.65 2.25 16.1
      vertex 0.883883 2.25 10.8839
    endloop
  endfacet
  facet normal 0 1 0
    outer loop
      vertex 0.478354 2.25 11.1548
      vertex -1.65 2.25 16.1
      vertex 0.694463 2.25 11.0393
    endloop
  endfacet
  facet normal 0 1 0
    outer loop
      vertex -0.243863 2.25 11.226
      vertex -1.65 2.25 16.1
      vertex 2.75536e-016 2.25 11.25
    endloop
  endfacet
  facet normal 0 1 0
    outer loop
      vertex 0.243863 2.25 11.226
      vertex -1.65 2.25 16.1
      vertex 0.478354 2.25 11.1548
    endloop
  endfacet
  facet normal 0 1 0
    outer loop
      vertex 2.75536e-016 2.25 11.25
      vertex -1.65 2.25 16.1
      vertex 0.243863 2.25 11.226
    endloop
  endfacet
  facet normal 0 1 0
    outer loop
      vertex 1.22598 2.25 10.2439
      vertex 1.65 2.25 16.1
      vertex 1.25 2.25 10
    endloop
  endfacet
  facet normal 0 1 0
    outer loop
      vertex -1.15485 2.25 10.4784
      vertex -1.65 2.25 16.1
      vertex -1.03934 2.25 10.6945
    endloop
  endfacet
  facet normal 0 1 0
    outer loop
      vertex -1.22598 2.25 10.2439
      vertex -1.65 2.25 16.1
      vertex -1.15485 2.25 10.4784
    endloop
  endfacet
  facet normal 0 1 0
    outer loop
      vertex -1.25 2.25 10
      vertex -1.65 2.25 16.1
      vertex -1.22598 2.25 10.2439
    endloop
  endfacet
  facet normal 0 1 0
    outer loop
      vertex -0.883883 2.25 9.11612
      vertex 1.65 2.25 3.7
      vertex -1.03934 2.25 9.30554
    endloop
  endfacet
  facet normal -0.656179 0.754606 0
    outer loop
      vertex -2.7425 1.3 3.7
      vertex -2.7425 1.3 16.1
      vertex -1.65 2.25 3.7
    endloop
  endfacet
  facet normal -0.656179 0.754606 0
    outer loop
      vertex -1.65 2.25 3.7
      vertex -2.7425 1.3 16.1
      vertex -1.65 2.25 16.1
    endloop
  endfacet
  facet normal 0 1 0
    outer loop
      vertex -2.8 1.3 3.7
      vertex -2.8 1.3 16.1
      vertex -2.7425 1.3 3.7
    endloop
  endfacet
  facet normal 0 1 0
    outer loop
      vertex -2.7425 1.3 3.7
      vertex -2.8 1.3 16.1
      vertex -2.7425 1.3 16.1
    endloop
  endfacet
  facet normal -1 0 0
    outer loop
      vertex -2.8 -1.3 3.7
      vertex -2.8 -1.3 16.1
      vertex -2.8 1.3 3.7
    endloop
  endfacet
  facet normal -1 0 0
    outer loop
      vertex -2.8 1.3 3.7
      vertex -2.8 -1.3 16.1
      vertex -2.8 1.3 16.1
    endloop
  endfacet
  facet normal 0.995185 -1.00107e-016 0.0980155
    outer loop
      vertex -1.22598 -2.3 9.75614
      vertex -1.22598 2.25 9.75614
      vertex -1.25 2.25 10
    endloop
  endfacet
  facet normal 0.995185 -1.00107e-016 0.0980155
    outer loop
      vertex -1.25 -2.3 10
      vertex -1.22598 -2.3 9.75614
      vertex -1.25 2.25 10
    endloop
  endfacet
  facet normal 0.956939 -5.27305e-017 0.290288
    outer loop
      vertex -1.15485 -2.3 9.52165
      vertex -1.15485 2.25 9.52165
      vertex -1.22598 2.25 9.75614
    endloop
  endfacet
  facet normal 0.956939 -5.27305e-017 0.290288
    outer loop
      vertex -1.22598 -2.3 9.75614
      vertex -1.15485 -2.3 9.52165
      vertex -1.22598 2.25 9.75614
    endloop
  endfacet
  facet normal 0.881922 -3.33014e-018 0.471395
    outer loop
      vertex -1.03934 -2.3 9.30554
      vertex -1.03934 2.25 9.30554
      vertex -1.15485 2.25 9.52165
    endloop
  endfacet
  facet normal 0.881922 -3.33014e-018 0.471395
    outer loop
      vertex -1.15485 -2.3 9.52165
      vertex -1.03934 -2.3 9.30554
      vertex -1.15485 2.25 9.52165
    endloop
  endfacet
  facet normal 0.773008 4.62011e-017 0.634396
    outer loop
      vertex -0.883883 -2.3 9.11612
      vertex -0.883883 2.25 9.11612
      vertex -1.03934 2.25 9.30554
    endloop
  endfacet
  facet normal 0.773008 4.62011e-017 0.634396
    outer loop
      vertex -1.03934 -2.3 9.30554
      vertex -0.883883 -2.3 9.11612
      vertex -1.03934 2.25 9.30554
    endloop
  endfacet
  facet normal 0.634396 9.39538e-017 0.773008
    outer loop
      vertex -0.694463 -2.3 8.96066
      vertex -0.694463 2.25 8.96066
      vertex -0.883883 2.25 9.11612
    endloop
  endfacet
  facet normal 0.634396 9.39538e-017 0.773008
    outer loop
      vertex -0.883883 -2.3 9.11612
      vertex -0.694463 -2.3 8.96066
      vertex -0.883883 2.25 9.11612
    endloop
  endfacet
  facet normal 0.471395 1.38099e-016 0.881922
    outer loop
      vertex -0.478354 -2.3 8.84515
      vertex -0.478354 2.25 8.84515
      vertex -0.694463 2.25 8.96066
    endloop
  endfacet
  facet normal 0.471395 1.38099e-016 0.881922
    outer loop
      vertex -0.694463 -2.3 8.96066
      vertex -0.478354 -2.3 8.84515
      vertex -0.694463 2.25 8.96066
    endloop
  endfacet
  facet normal 0.290288 1.76934e-016 0.956939
    outer loop
      vertex -0.243863 -2.3 8.77402
      vertex -0.243863 2.25 8.77402
      vertex -0.478354 2.25 8.84515
    endloop
  endfacet
  facet normal 0.290288 1.76934e-016 0.956939
    outer loop
      vertex -0.478354 -2.3 8.84515
      vertex -0.243863 -2.3 8.77402
      vertex -0.478354 2.25 8.84515
    endloop
  endfacet
  facet normal 0.0980155 2.08972e-016 0.995185
    outer loop
      vertex -2.81659e-016 -2.3 8.75
      vertex 2.75536e-016 2.25 8.75
      vertex -0.243863 2.25 8.77402
    endloop
  endfacet
  facet normal 0.0980155 2.08972e-016 0.995185
    outer loop
      vertex -0.243863 -2.3 8.77402
      vertex -2.81659e-016 -2.3 8.75
      vertex -0.243863 2.25 8.77402
    endloop
  endfacet
  facet normal -0.0980155 2.32978e-016 0.995185
    outer loop
      vertex 0.243863 -2.3 8.77402
      vertex 0.243863 2.25 8.77402
      vertex 2.75536e-016 2.25 8.75
    endloop
  endfacet
  facet normal -0.0980155 2.32978e-016 0.995185
    outer loop
      vertex -2.81659e-016 -2.3 8.75
      vertex 0.243863 -2.3 8.77402
      vertex 2.75536e-016 2.25 8.75
    endloop
  endfacet
  facet normal -0.290288 2.48032e-016 0.956939
    outer loop
      vertex 0.478354 -2.3 8.84515
      vertex 0.478354 2.25 8.84515
      vertex 0.243863 2.25 8.77402
    endloop
  endfacet
  facet normal -0.290288 2.48032e-016 0.956939
    outer loop
      vertex 0.243863 -2.3 8.77402
      vertex 0.478354 -2.3 8.84515
      vertex 0.243863 2.25 8.77402
    endloop
  endfacet
  facet normal -0.471395 2.53553e-016 0.881922
    outer loop
      vertex 0.694463 -2.3 8.96066
      vertex 0.694463 2.25 8.96066
      vertex 0.478354 2.25 8.84515
    endloop
  endfacet
  facet normal -0.471395 2.53553e-016 0.881922
    outer loop
      vertex 0.478354 -2.3 8.84515
      vertex 0.694463 -2.3 8.96066
      vertex 0.478354 2.25 8.84515
    endloop
  endfacet
  facet normal -0.634396 2.49331e-016 0.773008
    outer loop
      vertex 0.883883 -2.3 9.11612
      vertex 0.883883 2.25 9.11612
      vertex 0.694463 2.25 8.96066
    endloop
  endfacet
  facet normal -0.634396 2.49331e-016 0.773008
    outer loop
      vertex 0.694463 -2.3 8.96066
      vertex 0.883883 -2.3 9.11612
      vertex 0.694463 2.25 8.96066
    endloop
  endfacet
  facet normal -0.773008 2.35527e-016 0.634396
    outer loop
      vertex 1.03934 2.25 9.30554
      vertex 0.883883 2.25 9.11612
      vertex 1.03934 -2.3 9.30554
    endloop
  endfacet
  facet normal -0.773008 2.35527e-016 0.634396
    outer loop
      vertex 1.03934 -2.3 9.30554
      vertex 0.883883 2.25 9.11612
      vertex 0.883883 -2.3 9.11612
    endloop
  endfacet
  facet normal -0.881922 2.12671e-016 0.471395
    outer loop
      vertex 1.15485 2.25 9.52165
      vertex 1.03934 2.25 9.30554
      vertex 1.15485 -2.3 9.52165
    endloop
  endfacet
  facet normal -0.881922 2.12671e-016 0.471395
    outer loop
      vertex 1.15485 -2.3 9.52165
      vertex 1.03934 2.25 9.30554
      vertex 1.03934 -2.3 9.30554
    endloop
  endfacet
  facet normal -0.956939 1.81644e-016 0.290288
    outer loop
      vertex 1.22598 2.25 9.75614
      vertex 1.15485 2.25 9.52165
      vertex 1.22598 -2.3 9.75614
    endloop
  endfacet
  facet normal -0.956939 1.81644e-016 0.290288
    outer loop
      vertex 1.22598 -2.3 9.75614
      vertex 1.15485 2.25 9.52165
      vertex 1.15485 -2.3 9.52165
    endloop
  endfacet
  facet normal -0.995185 1.43635e-016 0.0980155
    outer loop
      vertex 1.25 2.25 10
      vertex 1.22598 2.25 9.75614
      vertex 1.25 -2.3 10
    endloop
  endfacet
  facet normal -0.995185 1.43635e-016 0.0980155
    outer loop
      vertex 1.25 -2.3 10
      vertex 1.22598 2.25 9.75614
      vertex 1.22598 -2.3 9.75614
    endloop
  endfacet
  facet normal -0.995185 1.00107e-016 -0.0980155
    outer loop
      vertex 1.25 2.25 10
      vertex 1.25 -2.3 10
      vertex 1.22598 2.25 10.2439
    endloop
  endfacet
  facet normal -0.995185 1.00107e-016 -0.0980155
    outer loop
      vertex 1.22598 2.25 10.2439
      vertex 1.25 -2.3 10
      vertex 1.22598 -2.3 10.2439
    endloop
  endfacet
  facet normal -0.956939 5.27305e-017 -0.290288
    outer loop
      vertex 1.22598 2.25 10.2439
      vertex 1.22598 -2.3 10.2439
      vertex 1.15485 2.25 10.4784
    endloop
  endfacet
  facet normal -0.956939 5.27305e-017 -0.290288
    outer loop
      vertex 1.15485 2.25 10.4784
      vertex 1.22598 -2.3 10.2439
      vertex 1.15485 -2.3 10.4784
    endloop
  endfacet
  facet normal -0.881922 3.33014e-018 -0.471395
    outer loop
      vertex 1.15485 2.25 10.4784
      vertex 1.15485 -2.3 10.4784
      vertex 1.03934 2.25 10.6945
    endloop
  endfacet
  facet normal -0.881922 3.33014e-018 -0.471395
    outer loop
      vertex 1.03934 2.25 10.6945
      vertex 1.15485 -2.3 10.4784
      vertex 1.03934 -2.3 10.6945
    endloop
  endfacet
  facet normal -0.773008 -4.62011e-017 -0.634396
    outer loop
      vertex 1.03934 2.25 10.6945
      vertex 1.03934 -2.3 10.6945
      vertex 0.883883 2.25 10.8839
    endloop
  endfacet
  facet normal -0.773008 -4.62011e-017 -0.634396
    outer loop
      vertex 0.883883 2.25 10.8839
      vertex 1.03934 -2.3 10.6945
      vertex 0.883883 -2.3 10.8839
    endloop
  endfacet
  facet normal -0.634396 -9.39538e-017 -0.773008
    outer loop
      vertex 0.883883 2.25 10.8839
      vertex 0.883883 -2.3 10.8839
      vertex 0.694463 2.25 11.0393
    endloop
  endfacet
  facet normal -0.634396 -9.39538e-017 -0.773008
    outer loop
      vertex 0.694463 2.25 11.0393
      vertex 0.883883 -2.3 10.8839
      vertex 0.694463 -2.3 11.0393
    endloop
  endfacet
  facet normal -0.471395 -1.38099e-016 -0.881922
    outer loop
      vertex 0.694463 2.25 11.0393
      vertex 0.694463 -2.3 11.0393
      vertex 0.478354 2.25 11.1548
    endloop
  endfacet
  facet normal -0.471395 -1.38099e-016 -0.881922
    outer loop
      vertex 0.478354 2.25 11.1548
      vertex 0.694463 -2.3 11.0393
      vertex 0.478354 -2.3 11.1548
    endloop
  endfacet
  facet normal -0.290288 -1.76934e-016 -0.956939
    outer loop
      vertex 0.478354 2.25 11.1548
      vertex 0.478354 -2.3 11.1548
      vertex 0.243863 2.25 11.226
    endloop
  endfacet
  facet normal -0.290288 -1.76934e-016 -0.956939
    outer loop
      vertex 0.243863 2.25 11.226
      vertex 0.478354 -2.3 11.1548
      vertex 0.243863 -2.3 11.226
    endloop
  endfacet
  facet normal -0.0980155 -2.08972e-016 -0.995185
    outer loop
      vertex 0.243863 2.25 11.226
      vertex 0.243863 -2.3 11.226
      vertex 2.75536e-016 2.25 11.25
    endloop
  endfacet
  facet normal -0.0980155 -2.08972e-016 -0.995185
    outer loop
      vertex 2.75536e-016 2.25 11.25
      vertex 0.243863 -2.3 11.226
      vertex -2.81659e-016 -2.3 11.25
    endloop
  endfacet
  facet normal 0.0980155 -2.32978e-016 -0.995185
    outer loop
      vertex 2.75536e-016 2.25 11.25
      vertex -2.81659e-016 -2.3 11.25
      vertex -0.243863 2.25 11.226
    endloop
  endfacet
  facet normal 0.0980155 -2.32978e-016 -0.995185
    outer loop
      vertex -0.243863 2.25 11.226
      vertex -2.81659e-016 -2.3 11.25
      vertex -0.243863 -2.3 11.226
    endloop
  endfacet
  facet normal 0.290288 -2.48032e-016 -0.956939
    outer loop
      vertex -0.243863 2.25 11.226
      vertex -0.243863 -2.3 11.226
      vertex -0.478354 2.25 11.1548
    endloop
  endfacet
  facet normal 0.290288 -2.48032e-016 -0.956939
    outer loop
      vertex -0.478354 2.25 11.1548
      vertex -0.243863 -2.3 11.226
      vertex -0.478354 -2.3 11.1548
    endloop
  endfacet
  facet normal 0.471395 -2.53553e-016 -0.881922
    outer loop
      vertex -0.478354 2.25 11.1548
      vertex -0.478354 -2.3 11.1548
      vertex -0.694463 2.25 11.0393
    endloop
  endfacet
  facet normal 0.471395 -2.53553e-016 -0.881922
    outer loop
      vertex -0.694463 2.25 11.0393
      vertex -0.478354 -2.3 11.1548
      vertex -0.694463 -2.3 11.0393
    endloop
  endfacet
  facet normal 0.634396 -2.49331e-016 -0.773008
    outer loop
      vertex -0.694463 2.25 11.0393
      vertex -0.694463 -2.3 11.0393
      vertex -0.883883 2.25 10.8839
    endloop
  endfacet
  facet normal 0.634396 -2.49331e-016 -0.773008
    outer loop
      vertex -0.883883 2.25 10.8839
      vertex -0.694463 -2.3 11.0393
      vertex -0.883883 -2.3 10.8839
    endloop
  endfacet
  facet normal 0.773008 -2.35527e-016 -0.634396
    outer loop
      vertex -1.03934 2.25 10.6945
      vertex -0.883883 2.25 10.8839
      vertex -0.883883 -2.3 10.8839
    endloop
  endfacet
  facet normal 0.773008 -2.35527e-016 -0.634396
    outer loop
      vertex -1.03934 -2.3 10.6945
      vertex -1.03934 2.25 10.6945
      vertex -0.883883 -2.3 10.8839
    endloop
  endfacet
  facet normal 0.881922 -2.12671e-016 -0.471395
    outer loop
      vertex -1.15485 2.25 10.4784
      vertex -1.03934 2.25 10.6945
      vertex -1.03934 -2.3 10.6945
    endloop
  endfacet
  facet normal 0.881922 -2.12671e-016 -0.471395
    outer loop
      vertex -1.15485 -2.3 10.4784
      vertex -1.15485 2.25 10.4784
      vertex -1.03934 -2.3 10.6945
    endloop
  endfacet
  facet normal 0.956939 -1.81644e-016 -0.290288
    outer loop
      vertex -1.22598 2.25 10.2439
      vertex -1.15485 2.25 10.4784
      vertex -1.15485 -2.3 10.4784
    endloop
  endfacet
  facet normal 0.956939 -1.81644e-016 -0.290288
    outer loop
      vertex -1.22598 -2.3 10.2439
      vertex -1.22598 2.25 10.2439
      vertex -1.15485 -2.3 10.4784
    endloop
  endfacet
  facet normal 0.995185 -1.43635e-016 -0.0980155
    outer loop
      vertex -1.25 2.25 10
      vertex -1.22598 2.25 10.2439
      vertex -1.22598 -2.3 10.2439
    endloop
  endfacet
  facet normal 0.995185 -1.43635e-016 -0.0980155
    outer loop
      vertex -1.25 -2.3 10
      vertex -1.25 2.25 10
      vertex -1.22598 -2.3 10.2439
    endloop
  endfacet
endsolid OpenSCAD_Model
