  0
SECTION
  2
HEADER
  9
$ACADVER
  1
AC1014
  9
$HANDSEED
  5
FFFF
  9
$MEASUREMENT
 70
     1
  0
ENDSEC
  0
SECTION
  2
TABLES
  0
TABLE
  2
VPORT
  5
8
330
0
100
AcDbSymbolTable
 70
     4
  0
VPORT
  5
2E
330
8
100
AcDbSymbolTableRecord
100
AcDbViewportTableRecord
  2
*ACTIVE
 70
     0
 10
0.0
 20
0.0
 11
1.0
 21
1.0
 12
210.0
 22
148.5
 13
0.0
 23
0.0
 14
10.0
 24
10.0
 15
10.0
 25
10.0
 16
0.0
 26
0.0
 36
1.0
 17
0.0
 27
0.0
 37
0.0
 40
341.0
 41
1.24
 42
50.0
 43
0.0
 44
0.0
 50
0.0
 51
0.0
 71
     0
 72
   100
 73
     1
 74
     3
 75
     0
 76
     0
 77
     0
 78
     0
  0
ENDTAB
  0
TABLE
  2
LTYPE
  5
5
330
0
100
AcDbSymbolTable
 70
     1
  0
LTYPE
  5
14
330
5
100
AcDbSymbolTableRecord
100
AcDbLinetypeTableRecord
  2
BYBLOCK
 70
     0
  3

 72
    65
 73
     0
 40
0.0
  0
LTYPE
  5
15
330
5
100
AcDbSymbolTableRecord
100
AcDbLinetypeTableRecord
  2
BYLAYER
 70
     0
  3

 72
    65
 73
     0
 40
0.0
  0
LTYPE
  5
16
330
5
100
AcDbSymbolTableRecord
100
AcDbLinetypeTableRecord
  2
CONTINUOUS
 70
     0
  3
Solid line
 72
    65
 73
     0
 40
0.0
  0
ENDTAB
  0
TABLE
  2
LAYER
  5
2
100
AcDbSymbolTable
 70
1
  0
LAYER
  5
50
100
AcDbSymbolTableRecord
100
AcDbLayerTableRecord
  2
0
 70
0
  6
CONTINUOUS
  0
ENDTAB
  0
TABLE
  2
STYLE
  5
3
330
0
100
AcDbSymbolTable
 70
     1
  0
STYLE
  5
11
330
3
100
AcDbSymbolTableRecord
100
AcDbTextStyleTableRecord
  2
STANDARD
 70
     0
 40
0.0
 41
1.0
 50
0.0
 71
     0
 42
2.5
  3
txt
  4

  0
ENDTAB
  0
TABLE
  2
VIEW
  5
6
330
0
100
AcDbSymbolTable
 70
     0
  0
ENDTAB
  0
TABLE
  2
UCS
  5
7
330
0
100
AcDbSymbolTable
 70
     0
  0
ENDTAB
  0
TABLE
  2
APPID
  5
9
330
0
100
AcDbSymbolTable
 70
     2
  0
APPID
  5
12
330
9
100
AcDbSymbolTableRecord
100
AcDbRegAppTableRecord
  2
ACAD
 70
     0
  0
ENDTAB
  0
TABLE
  2
DIMSTYLE
  5
A
330
0
100
AcDbSymbolTable
 70
     1
  0
DIMSTYLE
105
27
330
A
100
AcDbSymbolTableRecord
100
AcDbDimStyleTableRecord
  2
ISO-25
 70
     0
  3

  4

  5

  6

  7

 40
1.0
 41
2.5
 42
0.625
 43
3.75
 44
1.25
 45
0.0
 46
0.0
 47
0.0
 48
0.0
140
2.5
141
2.5
142
0.0
143
0.03937007874016
144
1.0
145
0.0
146
1.0
147
0.625
 71
     0
 72
     0
 73
     0
 74
     0
 75
     0
 76
     0
 77
     1
 78
     8
170
     0
171
     3
172
     1
173
     0
174
     0
175
     0
176
     0
177
     0
178
     0
270
     2
271
     2
272
     2
273
     2
274
     3
340
11
275
     0
280
     0
281
     0
282
     0
283
     0
284
     8
285
     0
286
     0
287
     3
288
     0
  0
ENDTAB
  0
TABLE
  2
BLOCK_RECORD
  5
1
330
0
100
AcDbSymbolTable
 70
     1
  0
BLOCK_RECORD
  5
1F
330
1
100
AcDbSymbolTableRecord
100
AcDbBlockTableRecord
  2
*MODEL_SPACE
  0
BLOCK_RECORD
  5
1B
330
1
100
AcDbSymbolTableRecord
100
AcDbBlockTableRecord
  2
*PAPER_SPACE
  0
ENDTAB
  0
ENDSEC
  0
SECTION
  2
BLOCKS
  0
BLOCK
  5
20
330
1F
100
AcDbEntity
  8
0
100
AcDbBlockBegin
  2
*MODEL_SPACE
 70
     0
 10
0.0
 20
0.0
 30
0.0
  3
*MODEL_SPACE
  1

  0
ENDBLK
  5
21
330
1F
100
AcDbEntity
  8
0
100
AcDbBlockEnd
  0
BLOCK
  5
1C
330
1B
100
AcDbEntity
 67
     1
  8
0
100
AcDbBlockBegin
  2
*PAPER_SPACE
  1

  0
ENDBLK
  5
1D
330
1B
100
AcDbEntity
 67
     1
  8
0
100
AcDbBlockEnd
  0
ENDSEC
  0
SECTION
  2
ENTITIES
  0
LWPOLYLINE
  5
100
100
AcDbEntity
  8
0
 62
7
100
AcDbPolyline
 90
321
 70
0
 10
5.208928
 20
5.032656
 30
0.0
 10
5.239395
 20
5.087220
 30
0.0
 10
5.273475
 20
5.143962
 30
0.0
 10
5.310799
 20
5.202428
 30
0.0
 10
5.351002
 20
5.262167
 30
0.0
 10
5.393716
 20
5.322728
 30
0.0
 10
5.438574
 20
5.383658
 30
0.0
 10
5.485211
 20
5.444506
 30
0.0
 10
5.533258
 20
5.504819
 30
0.0
 10
5.582350
 20
5.564146
 30
0.0
 10
5.632119
 20
5.622036
 30
0.0
 10
5.682198
 20
5.678036
 30
0.0
 10
5.732221
 20
5.731694
 30
0.0
 10
5.781821
 20
5.782560
 30
0.0
 10
5.830631
 20
5.830180
 30
0.0
 10
5.878284
 20
5.874104
 30
0.0
 10
5.924413
 20
5.913879
 30
0.0
 10
6.039547
 20
6.013512
 30
0.0
 10
6.135870
 20
6.106353
 30
0.0
 10
6.213018
 20
6.193089
 30
0.0
 10
6.270626
 20
6.274405
 30
0.0
 10
6.308328
 20
6.350986
 30
0.0
 10
6.325759
 20
6.423519
 30
0.0
 10
6.322552
 20
6.492688
 30
0.0
 10
6.298346
 20
6.559180
 30
0.0
 10
6.252773
 20
6.623680
 30
0.0
 10
6.185468
 20
6.686874
 30
0.0
 10
6.096067
 20
6.749446
 30
0.0
 10
5.984202
 20
6.812084
 30
0.0
 10
5.849511
 20
6.875472
 30
0.0
 10
5.691627
 20
6.940296
 30
0.0
 10
5.510185
 20
7.007242
 30
0.0
 10
5.304821
 20
7.076995
 30
0.0
 10
4.828276
 20
7.245226
 30
0.0
 10
4.382796
 20
7.426620
 30
0.0
 10
3.968801
 20
7.620716
 30
0.0
 10
3.586711
 20
7.827057
 30
0.0
 10
3.236942
 20
8.045182
 30
0.0
 10
2.919916
 20
8.274634
 30
0.0
 10
2.636050
 20
8.514951
 30
0.0
 10
2.385764
 20
8.765676
 30
0.0
 10
2.169476
 20
9.026349
 30
0.0
 10
1.987606
 20
9.296512
 30
0.0
 10
1.840572
 20
9.575704
 30
0.0
 10
1.728793
 20
9.863466
 30
0.0
 10
1.652689
 20
10.159340
 30
0.0
 10
1.612677
 20
10.462866
 30
0.0
 10
1.609178
 20
10.773586
 30
0.0
 10
1.642610
 20
11.091039
 30
0.0
 10
1.663153
 20
11.230271
 30
0.0
 10
1.677839
 20
11.360670
 30
0.0
 10
1.686347
 20
11.483233
 30
0.0
 10
1.688356
 20
11.598961
 30
0.0
 10
1.683547
 20
11.708853
 30
0.0
 10
1.671600
 20
11.813908
 30
0.0
 10
1.652194
 20
11.915126
 30
0.0
 10
1.625008
 20
12.013505
 30
0.0
 10
1.589723
 20
12.110046
 30
0.0
 10
1.546018
 20
12.205747
 30
0.0
 10
1.493574
 20
12.301608
 30
0.0
 10
1.432069
 20
12.398628
 30
0.0
 10
1.361183
 20
12.497806
 30
0.0
 10
1.280596
 20
12.600142
 30
0.0
 10
1.189989
 20
12.706635
 30
0.0
 10
1.089040
 20
12.818284
 30
0.0
 10
1.017262
 20
12.896755
 30
0.0
 10
0.948506
 20
12.974019
 30
0.0
 10
0.883084
 20
13.049634
 30
0.0
 10
0.821310
 20
13.123159
 30
0.0
 10
0.763497
 20
13.194151
 30
0.0
 10
0.709958
 20
13.262166
 30
0.0
 10
0.661005
 20
13.326762
 30
0.0
 10
0.616952
 20
13.387498
 30
0.0
 10
0.578113
 20
13.443931
 30
0.0
 10
0.544798
 20
13.495618
 30
0.0
 10
0.517323
 20
13.542116
 30
0.0
 10
0.496000
 20
13.582984
 30
0.0
 10
0.481141
 20
13.617779
 30
0.0
 10
0.473061
 20
13.646058
 30
0.0
 10
0.472071
 20
13.667380
 30
0.0
 10
0.478485
 20
13.681299
 30
0.0
 10
0.496227
 20
13.689856
 30
0.0
 10
0.528474
 20
13.695438
 30
0.0
 10
0.574419
 20
13.698147
 30
0.0
 10
0.633257
 20
13.698044
 30
0.0
 10
0.704179
 20
13.695221
 30
0.0
 10
0.786381
 20
13.689783
 30
0.0
 10
0.879056
 20
13.681807
 30
0.0
 10
0.981396
 20
13.671385
 30
0.0
 10
1.092597
 20
13.658600
 30
0.0
 10
1.211852
 20
13.643544
 30
0.0
 10
1.338353
 20
13.626300
 30
0.0
 10
1.471295
 20
13.606959
 30
0.0
 10
1.609872
 20
13.585609
 30
0.0
 10
1.753277
 20
13.562337
 30
0.0
 10
1.900703
 20
13.537228
 30
0.0
 10
2.051344
 20
13.510371
 30
0.0
 10
2.262999
 20
13.473265
 30
0.0
 10
2.459643
 20
13.442054
 30
0.0
 10
2.642579
 20
13.416831
 30
0.0
 10
2.813108
 20
13.397691
 30
0.0
 10
2.972532
 20
13.384726
 30
0.0
 10
3.122154
 20
13.378032
 30
0.0
 10
3.263276
 20
13.377693
 30
0.0
 10
3.397199
 20
13.383817
 30
0.0
 10
3.525226
 20
13.396492
 30
0.0
 10
3.648658
 20
13.415810
 30
0.0
 10
3.768798
 20
13.441865
 30
0.0
 10
3.886948
 20
13.474748
 30
0.0
 10
4.004409
 20
13.514554
 30
0.0
 10
4.122485
 20
13.561378
 30
0.0
 10
4.242476
 20
13.615312
 30
0.0
 10
4.365685
 20
13.676449
 30
0.0
 10
4.666384
 20
13.820623
 30
0.0
 10
4.995959
 20
13.957428
 30
0.0
 10
5.352897
 20
14.086605
 30
0.0
 10
5.735688
 20
14.207894
 30
0.0
 10
6.142823
 20
14.321036
 30
0.0
 10
6.572790
 20
14.425771
 30
0.0
 10
7.024079
 20
14.521839
 30
0.0
 10
7.495179
 20
14.608981
 30
0.0
 10
7.984581
 20
14.686937
 30
0.0
 10
8.490772
 20
14.755447
 30
0.0
 10
9.012244
 20
14.814252
 30
0.0
 10
9.547485
 20
14.863091
 30
0.0
 10
10.094985
 20
14.901707
 30
0.0
 10
10.653233
 20
14.929839
 30
0.0
 10
11.220718
 20
14.947226
 30
0.0
 10
11.795931
 20
14.953610
 30
0.0
 10
12.323182
 20
14.955783
 30
0.0
 10
12.792367
 20
14.961222
 30
0.0
 10
13.205694
 20
14.970558
 30
0.0
 10
13.565374
 20
14.984432
 30
0.0
 10
13.873614
 20
15.003485
 30
0.0
 10
14.132625
 20
15.028357
 30
0.0
 10
14.344615
 20
15.059689
 30
0.0
 10
14.511793
 20
15.098122
 30
0.0
 10
14.636368
 20
15.144296
 30
0.0
 10
14.720549
 20
15.198852
 30
0.0
 10
14.766545
 20
15.262431
 30
0.0
 10
14.776567
 20
15.335672
 30
0.0
 10
14.752821
 20
15.419218
 30
0.0
 10
14.697516
 20
15.513707
 30
0.0
 10
14.612863
 20
15.619782
 30
0.0
 10
14.501070
 20
15.738082
 30
0.0
 10
14.459724
 20
15.784535
 30
0.0
 10
14.429759
 20
15.830310
 30
0.0
 10
14.411556
 20
15.875767
 30
0.0
 10
14.405497
 20
15.921262
 30
0.0
 10
14.411959
 20
15.967153
 30
0.0
 10
14.431326
 20
16.013797
 30
0.0
 10
14.463973
 20
16.061552
 30
0.0
 10
14.510284
 20
16.110775
 30
0.0
 10
14.570639
 20
16.161825
 30
0.0
 10
14.645418
 20
16.215058
 30
0.0
 10
14.735001
 20
16.270832
 30
0.0
 10
14.839770
 20
16.329504
 30
0.0
 10
14.960103
 20
16.391433
 30
0.0
 10
15.096381
 20
16.456975
 30
0.0
 10
15.248985
 20
16.526488
 30
0.0
 10
15.418296
 20
16.600330
 30
0.0
 10
15.913514
 20
16.807564
 30
0.0
 10
16.354991
 20
16.982008
 30
0.0
 10
16.743017
 20
17.123540
 30
0.0
 10
17.077883
 20
17.232038
 30
0.0
 10
17.359882
 20
17.307379
 30
0.0
 10
17.589304
 20
17.349441
 30
0.0
 10
17.766440
 20
17.358102
 30
0.0
 10
17.891582
 20
17.333239
 30
0.0
 10
17.965022
 20
17.274730
 30
0.0
 10
17.987049
 20
17.182454
 30
0.0
 10
17.957956
 20
17.056287
 30
0.0
 10
17.878033
 20
16.896107
 30
0.0
 10
17.747573
 20
16.701793
 30
0.0
 10
17.566866
 20
16.473222
 30
0.0
 10
17.336203
 20
16.210271
 30
0.0
 10
17.055876
 20
15.912819
 30
0.0
 10
16.904563
 20
15.749866
 30
0.0
 10
16.772411
 20
15.593359
 30
0.0
 10
16.659457
 20
15.443858
 30
0.0
 10
16.565740
 20
15.301925
 30
0.0
 10
16.491297
 20
15.168121
 30
0.0
 10
16.436163
 20
15.043008
 30
0.0
 10
16.400378
 20
14.927147
 30
0.0
 10
16.383978
 20
14.821098
 30
0.0
 10
16.387001
 20
14.725424
 30
0.0
 10
16.409483
 20
14.640685
 30
0.0
 10
16.451460
 20
14.567443
 30
0.0
 10
16.512972
 20
14.506259
 30
0.0
 10
16.594055
 20
14.457695
 30
0.0
 10
16.694746
 20
14.422311
 30
0.0
 10
16.815083
 20
14.400670
 30
0.0
 10
16.955102
 20
14.393332
 30
0.0
 10
17.003489
 20
14.389892
 30
0.0
 10
17.065784
 20
14.379797
 30
0.0
 10
17.141013
 20
14.363389
 30
0.0
 10
17.228203
 20
14.341006
 30
0.0
 10
17.326382
 20
14.312989
 30
0.0
 10
17.434575
 20
14.279678
 30
0.0
 10
17.551810
 20
14.241413
 30
0.0
 10
17.677114
 20
14.198533
 30
0.0
 10
17.809513
 20
14.151379
 30
0.0
 10
17.948034
 20
14.100291
 30
0.0
 10
18.091705
 20
14.045609
 30
0.0
 10
18.239551
 20
13.987672
 30
0.0
 10
18.390601
 20
13.926821
 30
0.0
 10
18.543879
 20
13.863396
 30
0.0
 10
18.698415
 20
13.797737
 30
0.0
 10
18.853233
 20
13.730183
 30
0.0
 10
19.161725
 20
13.584484
 30
0.0
 10
19.461655
 20
13.424646
 30
0.0
 10
19.751459
 20
13.252281
 30
0.0
 10
20.029571
 20
13.069003
 30
0.0
 10
20.294428
 20
12.876424
 30
0.0
 10
20.544463
 20
12.676157
 30
0.0
 10
20.778112
 20
12.469815
 30
0.0
 10
20.993810
 20
12.259009
 30
0.0
 10
21.189993
 20
12.045353
 30
0.0
 10
21.365095
 20
11.830460
 30
0.0
 10
21.517552
 20
11.615942
 30
0.0
 10
21.645798
 20
11.403412
 30
0.0
 10
21.748269
 20
11.194482
 30
0.0
 10
21.823401
 20
10.990765
 30
0.0
 10
21.869627
 20
10.793873
 30
0.0
 10
21.885383
 20
10.605421
 30
0.0
 10
21.888313
 20
10.537559
 30
0.0
 10
21.896904
 20
10.466400
 30
0.0
 10
21.910871
 20
10.392534
 30
0.0
 10
21.929921
 20
10.316551
 30
0.0
 10
21.953769
 20
10.239042
 30
0.0
 10
21.982122
 20
10.160596
 30
0.0
 10
22.014692
 20
10.081804
 30
0.0
 10
22.051189
 20
10.003255
 30
0.0
 10
22.091324
 20
9.925540
 30
0.0
 10
22.134808
 20
9.849248
 30
0.0
 10
22.181352
 20
9.774971
 30
0.0
 10
22.230665
 20
9.703297
 30
0.0
 10
22.282458
 20
9.634817
 30
0.0
 10
22.336443
 20
9.570122
 30
0.0
 10
22.392329
 20
9.509801
 30
0.0
 10
22.449828
 20
9.454444
 30
0.0
 10
22.592499
 20
9.320157
 30
0.0
 10
22.713025
 20
9.195661
 30
0.0
 10
22.811445
 20
9.081057
 30
0.0
 10
22.887798
 20
8.976447
 30
0.0
 10
22.942123
 20
8.881934
 30
0.0
 10
22.974459
 20
8.797617
 30
0.0
 10
22.984845
 20
8.723600
 30
0.0
 10
22.973322
 20
8.659984
 30
0.0
 10
22.939926
 20
8.606872
 30
0.0
 10
22.884699
 20
8.564364
 30
0.0
 10
22.807678
 20
8.532562
 30
0.0
 10
22.708904
 20
8.511567
 30
0.0
 10
22.588415
 20
8.501483
 30
0.0
 10
22.446250
 20
8.502415
 30
0.0
 10
22.282449
 20
8.514457
 30
0.0
 10
22.097051
 20
8.537715
 30
0.0
 10
21.972867
 20
8.552698
 30
0.0
 10
21.848497
 20
8.560928
 30
0.0
 10
21.723367
 20
8.562254
 30
0.0
 10
21.596903
 20
8.556491
 30
0.0
 10
21.468533
 20
8.543486
 30
0.0
 10
21.337682
 20
8.523076
 30
0.0
 10
21.203778
 20
8.495099
 30
0.0
 10
21.066247
 20
8.459392
 30
0.0
 10
20.924516
 20
8.415791
 30
0.0
 10
20.778012
 20
8.364134
 30
0.0
 10
20.626160
 20
8.304259
 30
0.0
 10
20.468388
 20
8.236003
 30
0.0
 10
20.304123
 20
8.159202
 30
0.0
 10
20.132791
 20
8.073693
 30
0.0
 10
19.953818
 20
7.979315
 30
0.0
 10
19.766632
 20
7.875904
 30
0.0
 10
19.384722
 20
7.670535
 30
0.0
 10
18.990409
 20
7.478262
 30
0.0
 10
18.583252
 20
7.298987
 30
0.0
 10
18.162814
 20
7.132611
 30
0.0
 10
17.728654
 20
6.979034
 30
0.0
 10
17.280334
 20
6.838159
 30
0.0
 10
16.817415
 20
6.709884
 30
0.0
 10
16.339457
 20
6.594113
 30
0.0
 10
15.846022
 20
6.490745
 30
0.0
 10
15.336671
 20
6.399681
 30
0.0
 10
14.810965
 20
6.320823
 30
0.0
 10
14.268465
 20
6.254072
 30
0.0
 10
13.708731
 20
6.199327
 30
0.0
 10
13.131325
 20
6.156492
 30
0.0
 10
12.535808
 20
6.125466
 30
0.0
 10
11.921740
 20
6.106150
 30
0.0
 10
11.482297
 20
6.095279
 30
0.0
 10
11.080898
 20
6.082111
 30
0.0
 10
10.713849
 20
6.065973
 30
0.0
 10
10.377456
 20
6.046195
 30
0.0
 10
10.068025
 20
6.022102
 30
0.0
 10
9.781863
 20
5.993020
 30
0.0
 10
9.515277
 20
5.958276
 30
0.0
 10
9.264571
 20
5.917197
 30
0.0
 10
9.026052
 20
5.869110
 30
0.0
 10
8.796027
 20
5.813342
 30
0.0
 10
8.570802
 20
5.749219
 30
0.0
 10
8.346683
 20
5.676069
 30
0.0
 10
8.119976
 20
5.593217
 30
0.0
 10
7.886988
 20
5.499992
 30
0.0
 10
7.644024
 20
5.395718
 30
0.0
 10
7.387391
 20
5.279724
 30
0.0
 10
7.029668
 20
5.117137
 30
0.0
 10
6.704524
 20
4.974513
 30
0.0
 10
6.411310
 20
4.851780
 30
0.0
 10
6.149373
 20
4.748863
 30
0.0
 10
5.918063
 20
4.665688
 30
0.0
 10
5.716730
 20
4.602183
 30
0.0
 10
5.544722
 20
4.558272
 30
0.0
 10
5.401390
 20
4.533883
 30
0.0
 10
5.286081
 20
4.528941
 30
0.0
 10
5.198146
 20
4.543371
 30
0.0
 10
5.136934
 20
4.577102
 30
0.0
 10
5.101793
 20
4.630059
 30
0.0
 10
5.092074
 20
4.702169
 30
0.0
 10
5.107124
 20
4.793356
 30
0.0
 10
5.146295
 20
4.903548
 30
0.0
 10
5.208928
 20
5.032656
 30
0.0
  0
LWPOLYLINE
  5
101
100
AcDbEntity
  8
0
 62
7
100
AcDbPolyline
 90
113
 70
0
 10
16.131433
 20
8.010865
 30
0.0
 10
16.281032
 20
8.051472
 30
0.0
 10
16.431601
 20
8.093832
 30
0.0
 10
16.582141
 20
8.137600
 30
0.0
 10
16.731652
 20
8.182436
 30
0.0
 10
16.879134
 20
8.227995
 30
0.0
 10
17.023586
 20
8.273937
 30
0.0
 10
17.164010
 20
8.319918
 30
0.0
 10
17.299405
 20
8.365595
 30
0.0
 10
17.428772
 20
8.410627
 30
0.0
 10
17.551111
 20
8.454670
 30
0.0
 10
17.665422
 20
8.497382
 30
0.0
 10
17.770705
 20
8.538421
 30
0.0
 10
17.865960
 20
8.577443
 30
0.0
 10
17.950187
 20
8.614107
 30
0.0
 10
18.022387
 20
8.648070
 30
0.0
 10
18.081560
 20
8.678989
 30
0.0
 10
18.166595
 20
8.727016
 30
0.0
 10
18.240215
 20
8.770019
 30
0.0
 10
18.302379
 20
8.808710
 30
0.0
 10
18.353048
 20
8.843801
 30
0.0
 10
18.392183
 20
8.876001
 30
0.0
 10
18.419742
 20
8.906025
 30
0.0
 10
18.435687
 20
8.934580
 30
0.0
 10
18.439977
 20
8.962382
 30
0.0
 10
18.432571
 20
8.990139
 30
0.0
 10
18.413434
 20
9.018561
 30
0.0
 10
18.382521
 20
9.048361
 30
0.0
 10
18.339794
 20
9.080251
 30
0.0
 10
18.285213
 20
9.114940
 30
0.0
 10
18.218739
 20
9.153141
 30
0.0
 10
18.140331
 20
9.195565
 30
0.0
 10
18.049949
 20
9.242923
 30
0.0
 10
17.980734
 20
9.274102
 30
0.0
 10
17.885388
 20
9.309624
 30
0.0
 10
17.765601
 20
9.349084
 30
0.0
 10
17.623063
 20
9.392074
 30
0.0
 10
17.459464
 20
9.438188
 30
0.0
 10
17.276496
 20
9.487018
 30
0.0
 10
17.075847
 20
9.538163
 30
0.0
 10
16.859208
 20
9.591212
 30
0.0
 10
16.628269
 20
9.645761
 30
0.0
 10
16.384721
 20
9.701402
 30
0.0
 10
16.130253
 20
9.757730
 30
0.0
 10
15.866556
 20
9.814338
 30
0.0
 10
15.595320
 20
9.870819
 30
0.0
 10
15.318235
 20
9.926768
 30
0.0
 10
15.036992
 20
9.981778
 30
0.0
 10
14.753280
 20
10.035443
 30
0.0
 10
14.580926
 20
10.067477
 30
0.0
 10
14.408573
 20
10.099511
 30
0.0
 10
14.236219
 20
10.131546
 30
0.0
 10
14.063866
 20
10.163580
 30
0.0
 10
13.891513
 20
10.195614
 30
0.0
 10
13.719159
 20
10.227649
 30
0.0
 10
13.546806
 20
10.259683
 30
0.0
 10
13.374452
 20
10.291718
 30
0.0
 10
13.202099
 20
10.323752
 30
0.0
 10
13.029745
 20
10.355786
 30
0.0
 10
12.857392
 20
10.387821
 30
0.0
 10
12.685038
 20
10.419855
 30
0.0
 10
12.512685
 20
10.451889
 30
0.0
 10
12.340331
 20
10.483924
 30
0.0
 10
12.167978
 20
10.515958
 30
0.0
 10
11.995624
 20
10.547993
 30
0.0
 10
11.916624
 20
10.470459
 30
0.0
 10
11.837623
 20
10.392926
 30
0.0
 10
11.758622
 20
10.315392
 30
0.0
 10
11.679622
 20
10.237859
 30
0.0
 10
11.600621
 20
10.160325
 30
0.0
 10
11.521620
 20
10.082792
 30
0.0
 10
11.442620
 20
10.005259
 30
0.0
 10
11.363619
 20
9.927725
 30
0.0
 10
11.284618
 20
9.850192
 30
0.0
 10
11.205617
 20
9.772658
 30
0.0
 10
11.126617
 20
9.695125
 30
0.0
 10
11.047616
 20
9.617591
 30
0.0
 10
10.968615
 20
9.540058
 30
0.0
 10
10.889615
 20
9.462525
 30
0.0
 10
10.810614
 20
9.384991
 30
0.0
 10
10.731613
 20
9.307458
 30
0.0
 10
10.602851
 20
9.179928
 30
0.0
 10
10.477700
 20
9.053699
 30
0.0
 10
10.356807
 20
8.929523
 30
0.0
 10
10.240820
 20
8.808149
 30
0.0
 10
10.130389
 20
8.690327
 30
0.0
 10
10.026160
 20
8.576810
 30
0.0
 10
9.928782
 20
8.468347
 30
0.0
 10
9.838903
 20
8.365688
 30
0.0
 10
9.757171
 20
8.269585
 30
0.0
 10
9.684234
 20
8.180788
 30
0.0
 10
9.620741
 20
8.100047
 30
0.0
 10
9.567338
 20
8.028113
 30
0.0
 10
9.524674
 20
7.965737
 30
0.0
 10
9.493398
 20
7.913669
 30
0.0
 10
9.474156
 20
7.872661
 30
0.0
 10
9.467597
 20
7.843461
 30
0.0
 10
9.525479
 20
7.779489
 30
0.0
 10
9.690630
 20
7.726935
 30
0.0
 10
9.950311
 20
7.685479
 30
0.0
 10
10.291780
 20
7.654801
 30
0.0
 10
10.702298
 20
7.634583
 30
0.0
 10
11.169123
 20
7.624502
 30
0.0
 10
11.679517
 20
7.624238
 30
0.0
 10
12.220737
 20
7.633473
 30
0.0
 10
12.780044
 20
7.651885
 30
0.0
 10
13.344698
 20
7.679156
 30
0.0
 10
13.901958
 20
7.714964
 30
0.0
 10
14.439083
 20
7.758990
 30
0.0
 10
14.943333
 20
7.810913
 30
0.0
 10
15.401968
 20
7.870414
 30
0.0
 10
15.802248
 20
7.937172
 30
0.0
 10
16.131433
 20
8.010865
 30
0.0
  0
LWPOLYLINE
  5
102
100
AcDbEntity
  8
0
 62
7
100
AcDbPolyline
 90
81
 70
0
 10
9.104139
 20
9.089872
 30
0.0
 10
9.227412
 20
9.212510
 30
0.0
 10
9.347228
 20
9.334955
 30
0.0
 10
9.462967
 20
9.456436
 30
0.0
 10
9.574008
 20
9.576179
 30
0.0
 10
9.679732
 20
9.693413
 30
0.0
 10
9.779517
 20
9.807365
 30
0.0
 10
9.872744
 20
9.917262
 30
0.0
 10
9.958791
 20
10.022333
 30
0.0
 10
10.037039
 20
10.121805
 30
0.0
 10
10.106866
 20
10.214904
 30
0.0
 10
10.167653
 20
10.300860
 30
0.0
 10
10.218779
 20
10.378900
 30
0.0
 10
10.259624
 20
10.448250
 30
0.0
 10
10.289567
 20
10.508139
 30
0.0
 10
10.307987
 20
10.557795
 30
0.0
 10
10.314264
 20
10.596444
 30
0.0
 10
10.298513
 20
10.632752
 30
0.0
 10
10.252222
 20
10.674332
 30
0.0
 10
10.176840
 20
10.720735
 30
0.0
 10
10.073815
 20
10.771513
 30
0.0
 10
9.944594
 20
10.826218
 30
0.0
 10
9.790626
 20
10.884400
 30
0.0
 10
9.613358
 20
10.945611
 30
0.0
 10
9.414238
 20
11.009402
 30
0.0
 10
9.194714
 20
11.075326
 30
0.0
 10
8.956234
 20
11.142932
 30
0.0
 10
8.700245
 20
11.211773
 30
0.0
 10
8.428196
 20
11.281401
 30
0.0
 10
8.141534
 20
11.351365
 30
0.0
 10
7.841708
 20
11.421219
 30
0.0
 10
7.530164
 20
11.490512
 30
0.0
 10
7.208351
 20
11.558797
 30
0.0
 10
6.760805
 20
11.650465
 30
0.0
 10
6.353488
 20
11.731527
 30
0.0
 10
5.984268
 20
11.802160
 30
0.0
 10
5.651011
 20
11.862542
 30
0.0
 10
5.351584
 20
11.912851
 30
0.0
 10
5.083854
 20
11.953263
 30
0.0
 10
4.845688
 20
11.983957
 30
0.0
 10
4.634952
 20
12.005109
 30
0.0
 10
4.449513
 20
12.016898
 30
0.0
 10
4.287238
 20
12.019494
 30
0.0
 10
4.145994
 20
12.013085
 30
0.0
 10
4.023647
 20
11.997845
 30
0.0
 10
3.918065
 20
11.973949
 30
0.0
 10
3.827114
 20
11.941577
 30
0.0
 10
3.748661
 20
11.900904
 30
0.0
 10
3.680573
 20
11.852109
 30
0.0
 10
3.504000
 20
11.676594
 30
0.0
 10
3.375943
 20
11.485631
 30
0.0
 10
3.294999
 20
11.281400
 30
0.0
 10
3.259766
 20
11.066085
 30
0.0
 10
3.268840
 20
10.841868
 30
0.0
 10
3.320819
 20
10.610932
 30
0.0
 10
3.414300
 20
10.375458
 30
0.0
 10
3.547880
 20
10.137629
 30
0.0
 10
3.720157
 20
9.899627
 30
0.0
 10
3.929727
 20
9.663636
 30
0.0
 10
4.175188
 20
9.431836
 30
0.0
 10
4.455138
 20
9.206411
 30
0.0
 10
4.768172
 20
8.989543
 30
0.0
 10
5.112890
 20
8.783413
 30
0.0
 10
5.487886
 20
8.590206
 30
0.0
 10
5.891760
 20
8.412102
 30
0.0
 10
6.189845
 20
8.292702
 30
0.0
 10
6.456825
 20
8.191045
 30
0.0
 10
6.696584
 20
8.107950
 30
0.0
 10
6.913007
 20
8.044237
 30
0.0
 10
7.109981
 20
8.000727
 30
0.0
 10
7.291389
 20
7.978236
 30
0.0
 10
7.461118
 20
7.977587
 30
0.0
 10
7.623053
 20
7.999600
 30
0.0
 10
7.781077
 20
8.045094
 30
0.0
 10
7.939077
 20
8.114888
 30
0.0
 10
8.100939
 20
8.209803
 30
0.0
 10
8.270546
 20
8.330657
 30
0.0
 10
8.451784
 20
8.478270
 30
0.0
 10
8.648539
 20
8.653463
 30
0.0
 10
8.864695
 20
8.857055
 30
0.0
 10
9.104139
 20
9.089872
 30
0.0
  0
LWPOLYLINE
  5
103
100
AcDbEntity
  8
0
 62
7
100
AcDbPolyline
 90
65
 70
0
 10
20.090822
 20
10.585512
 30
0.0
 10
20.137822
 20
10.788764
 30
0.0
 10
20.130007
 20
11.003147
 30
0.0
 10
20.070718
 20
11.226032
 30
0.0
 10
19.963297
 20
11.454784
 30
0.0
 10
19.811088
 20
11.686773
 30
0.0
 10
19.617431
 20
11.919366
 30
0.0
 10
19.385669
 20
12.149931
 30
0.0
 10
19.119144
 20
12.375837
 30
0.0
 10
18.821198
 20
12.594452
 30
0.0
 10
18.495175
 20
12.803143
 30
0.0
 10
18.144414
 20
12.999279
 30
0.0
 10
17.772260
 20
13.180228
 30
0.0
 10
17.382054
 20
13.343357
 30
0.0
 10
16.977138
 20
13.486035
 30
0.0
 10
16.560854
 20
13.605630
 30
0.0
 10
16.136545
 20
13.699509
 30
0.0
 10
15.965806
 20
13.729991
 30
0.0
 10
15.810461
 20
13.753738
 30
0.0
 10
15.668461
 20
13.770002
 30
0.0
 10
15.537753
 20
13.778040
 30
0.0
 10
15.416288
 20
13.777108
 30
0.0
 10
15.302014
 20
13.766463
 30
0.0
 10
15.192879
 20
13.745361
 30
0.0
 10
15.086833
 20
13.713060
 30
0.0
 10
14.981826
 20
13.668813
 30
0.0
 10
14.875806
 20
13.611878
 30
0.0
 10
14.766722
 20
13.541511
 30
0.0
 10
14.652523
 20
13.456967
 30
0.0
 10
14.531158
 20
13.357503
 30
0.0
 10
14.400577
 20
13.242376
 30
0.0
 10
14.258728
 20
13.110840
 30
0.0
 10
14.103560
 20
12.962152
 30
0.0
 10
13.904653
 20
12.764371
 30
0.0
 10
13.729845
 20
12.579739
 30
0.0
 10
13.579062
 20
12.407853
 30
0.0
 10
13.452229
 20
12.248309
 30
0.0
 10
13.349273
 20
12.100704
 30
0.0
 10
13.270119
 20
11.964635
 30
0.0
 10
13.214695
 20
11.839699
 30
0.0
 10
13.182926
 20
11.725492
 30
0.0
 10
13.174739
 20
11.621611
 30
0.0
 10
13.190058
 20
11.527653
 30
0.0
 10
13.228811
 20
11.443215
 30
0.0
 10
13.290923
 20
11.367893
 30
0.0
 10
13.376321
 20
11.301284
 30
0.0
 10
13.484931
 20
11.242985
 30
0.0
 10
13.616678
 20
11.192592
 30
0.0
 10
13.771489
 20
11.149703
 30
0.0
 10
14.571584
 20
10.963649
 30
0.0
 10
15.308029
 20
10.798560
 30
0.0
 10
15.982889
 20
10.654252
 30
0.0
 10
16.598228
 20
10.530541
 30
0.0
 10
17.156109
 20
10.427244
 30
0.0
 10
17.658597
 20
10.344174
 30
0.0
 10
18.107754
 20
10.281149
 30
0.0
 10
18.505644
 20
10.237984
 30
0.0
 10
18.854333
 20
10.214495
 30
0.0
 10
19.155881
 20
10.210495
 30
0.0
 10
19.412355
 20
10.225806
 30
0.0
 10
19.625817
 20
10.260238
 30
0.0
 10
19.798331
 20
10.313609
 30
0.0
 10
19.931961
 20
10.385735
 30
0.0
 10
20.028770
 20
10.476430
 30
0.0
 10
20.090822
 20
10.585512
 30
0.0
  0
LWPOLYLINE
  5
104
100
AcDbEntity
  8
0
 62
7
100
AcDbPolyline
 90
81
 70
0
 10
12.571231
 20
12.591729
 30
0.0
 10
12.686311
 20
12.696991
 30
0.0
 10
12.798164
 20
12.801839
 30
0.0
 10
12.906210
 20
12.905624
 30
0.0
 10
13.009872
 20
13.007694
 30
0.0
 10
13.108569
 20
13.107397
 30
0.0
 10
13.201723
 20
13.204082
 30
0.0
 10
13.288754
 20
13.297099
 30
0.0
 10
13.369082
 20
13.385796
 30
0.0
 10
13.442130
 20
13.469523
 30
0.0
 10
13.507316
 20
13.547627
 30
0.0
 10
13.564063
 20
13.619458
 30
0.0
 10
13.611792
 20
13.684365
 30
0.0
 10
13.649922
 20
13.741697
 30
0.0
 10
13.677876
 20
13.790802
 30
0.0
 10
13.695072
 20
13.831030
 30
0.0
 10
13.700934
 20
13.861729
 30
0.0
 10
13.644459
 20
13.924024
 30
0.0
 10
13.483354
 20
13.975827
 30
0.0
 10
13.230101
 20
14.017381
 30
0.0
 10
12.897178
 20
14.048930
 30
0.0
 10
12.497067
 20
14.070715
 30
0.0
 10
12.042248
 20
14.082983
 30
0.0
 10
11.545202
 20
14.085974
 30
0.0
 10
11.018408
 20
14.079932
 30
0.0
 10
10.474347
 20
14.065101
 30
0.0
 10
9.925500
 20
14.041725
 30
0.0
 10
9.384346
 20
14.010045
 30
0.0
 10
8.863367
 20
13.970306
 30
0.0
 10
8.375042
 20
13.922751
 30
0.0
 10
7.931852
 20
13.867622
 30
0.0
 10
7.546277
 20
13.805164
 30
0.0
 10
7.230798
 20
13.735620
 30
0.0
 10
6.879001
 20
13.637185
 30
0.0
 10
6.582593
 20
13.541951
 30
0.0
 10
6.342094
 20
13.449312
 30
0.0
 10
6.158023
 20
13.358659
 30
0.0
 10
6.030900
 20
13.269384
 30
0.0
 10
5.961245
 20
13.180881
 30
0.0
 10
5.949575
 20
13.092541
 30
0.0
 10
5.996412
 20
13.003757
 30
0.0
 10
6.102274
 20
12.913920
 30
0.0
 10
6.267682
 20
12.822424
 30
0.0
 10
6.493154
 20
12.728661
 30
0.0
 10
6.779211
 20
12.632023
 30
0.0
 10
7.126371
 20
12.531902
 30
0.0
 10
7.535154
 20
12.427691
 30
0.0
 10
8.006079
 20
12.318782
 30
0.0
 10
8.539667
 20
12.204567
 30
0.0
 10
8.821426
 20
12.146111
 30
0.0
 10
9.095993
 20
12.088983
 30
0.0
 10
9.361919
 20
12.033492
 30
0.0
 10
9.617749
 20
11.979947
 30
0.0
 10
9.862033
 20
11.928657
 30
0.0
 10
10.093317
 20
11.879931
 30
0.0
 10
10.310151
 20
11.834078
 30
0.0
 10
10.511082
 20
11.791408
 30
0.0
 10
10.694658
 20
11.752229
 30
0.0
 10
10.859428
 20
11.716850
 30
0.0
 10
11.003938
 20
11.685581
 30
0.0
 10
11.126738
 20
11.658730
 30
0.0
 10
11.226374
 20
11.636607
 30
0.0
 10
11.301396
 20
11.619521
 30
0.0
 10
11.350351
 20
11.607781
 30
0.0
 10
11.371785
 20
11.601696
 30
0.0
 10
11.384751
 20
11.603869
 30
0.0
 10
11.408853
 20
11.616377
 30
0.0
 10
11.443476
 20
11.638707
 30
0.0
 10
11.488005
 20
11.670348
 30
0.0
 10
11.541827
 20
11.710795
 30
0.0
 10
11.604325
 20
11.759540
 30
0.0
 10
11.674884
 20
11.816076
 30
0.0
 10
11.752891
 20
11.879895
 30
0.0
 10
11.837729
 20
11.950489
 30
0.0
 10
11.928784
 20
12.027351
 30
0.0
 10
12.025441
 20
12.109973
 30
0.0
 10
12.127085
 20
12.197848
 30
0.0
 10
12.233101
 20
12.290468
 30
0.0
 10
12.342873
 20
12.387325
 30
0.0
 10
12.455788
 20
12.487912
 30
0.0
 10
12.571231
 20
12.591729
 30
0.0
  0
ENDSEC
  0
SECTION
  2
OBJECTS
  0
DICTIONARY
  5
C
330
0
100
AcDbDictionary
  3
ACAD_GROUP
350
D
  3
ACAD_MLINESTYLE
350
17
  0
DICTIONARY
  5
D
330
C
100
AcDbDictionary
  0
DICTIONARY
  5
1A
330
C
100
AcDbDictionary
  0
DICTIONARY
  5
17
330
C
100
AcDbDictionary
  3
STANDARD
350
18
  0
DICTIONARY
  5
19
330
C
100
AcDbDictionary
  0
ENDSEC
  0
EOF
